<?xml version="1.0" encoding="utf-8"?>
<!-- Generator: Adobe Illustrator 28.1.0, SVG Export Plug-In . SVG Version: 6.00 Build 0)  -->
<svg version="1.1" id="Layer_1" xmlns="http://www.w3.org/2000/svg" xmlns:xlink="http://www.w3.org/1999/xlink" x="0px" y="0px"
	 viewBox="0 0 2248 624" style="enable-background:new 0 0 2248 624;" xml:space="preserve">
<style type="text/css">
	.st0{fill:#FFFFFF;}
	.st1{fill:#F6921E;}
</style>
<g>
	<g>
		<path class="st0" d="M882,298.1c-9.1-3-18.7-5.5-28.7-7.4c-10-1.9-19.8-2.8-29.3-2.8c-6.8,0-12.9,0.6-18.2,1.7
			c-5.3,1.1-10.2,3-14.8,5.7c-4.5,2.7-9.2,6-13.9,9.9c-4.7,4-9.9,9-15.6,15.1v279.1H644.9V210.5h104.6l10.2,62h0.6
			c3-4.5,6.7-10,11.1-16.2c4.4-6.3,9.1-12.4,14.2-18.5c5.1-6.1,10.5-11.7,16.2-16.8c5.7-5.1,11.4-8.6,17.1-10.5
			c9.9-3.8,21.3-6.2,34.4-7.1c13.1-0.9,27-1.4,41.8-1.4L882,298.1z"/>
		<path class="st0" d="M1274.3,542c10.2,0,23.7-2.3,40.4-6.8v26.2c-6.1,5.7-13.3,11.2-21.6,16.5c-8.3,5.3-17.3,9.9-26.7,13.9
			c-9.5,4-19.3,7.1-29.6,9.4c-10.2,2.3-20.3,3.4-30.1,3.4c-10.6,0-19.7-1.4-27.3-4.3s-14.1-6.6-19.6-11.4
			c-5.5-4.7-10.1-9.9-13.9-15.6c-3.8-5.7-7-11.4-9.7-17.1c-9.9,6.4-19.5,12.7-29,18.8c-9.5,6.1-19.4,11.5-29.8,16.2
			c-10.4,4.7-21.4,8.5-33,11.4c-11.6,2.8-24.4,4.3-38.4,4.3c-31.8,0-57-9.5-75.3-28.4c-18.4-18.9-27.6-47.6-27.6-85.8
			c0-20.5,2.7-38.2,8.2-53.2c5.5-15,14.3-27.5,26.4-37.5c12.1-10,27.9-17.6,47.2-22.7c19.3-5.1,43-8,71.1-8.8l69.9-2.3v-56.3
			c0-15.2-4.4-26.2-13.1-33.3c-8.7-7-23.3-10.5-43.8-10.5c-14.8,0-31.8,1.7-51.2,5.1c-19.3,3.4-39.4,9.1-60.3,17.1l-15.9-40.4
			c14-6.1,28.7-11.9,44.1-17.6c15.3-5.7,30.9-10.8,46.6-15.3c15.7-4.5,31.6-8.1,47.8-10.8c16.1-2.6,32.3-4,48.6-4
			c17.8,0,33.8,1.6,48,4.8c14.2,3.2,26.2,8.6,35.8,16.2c9.7,7.6,17.1,17.6,22.2,30.1c5.1,12.5,7.7,28.1,7.7,46.6v179.6
			C1242.5,521.1,1253.1,542,1274.3,542z M1131,523.8c-0.4-1.5-0.8-5.8-1.1-12.8c-0.4-7-0.9-15.9-1.4-26.7c-0.6-10.8-1-23-1.4-36.7
			c-0.4-13.6-0.6-28-0.6-43.2c-28.4,0-50,1.6-64.8,4.8c-14.8,3.2-23.9,7.1-27.3,11.7c-1.5,1.9-2.8,5.1-4,9.7s-2.1,9.7-2.8,15.3
			c-0.8,5.7-1.3,11.6-1.7,17.6c-0.4,6.1-0.6,11.6-0.6,16.5c0,17.4,2.6,31.7,7.7,42.9c5.1,11.2,13.7,16.8,25.9,16.8
			c12.9,0,25.2-1.5,37-4.5C1107.5,532.1,1119.3,528.3,1131,523.8z"/>
		<path class="st0" d="M1617.7,599.4V338.4c0-23.1-3.9-40.2-11.7-51.2c-7.8-11-20.9-16.5-39.5-16.5c-6.8,0-14.2,0.9-22.2,2.6
			c-8,1.7-16.1,4.2-24.4,7.4c-8.3,3.2-16.6,6.8-24.7,10.8c-8.2,4-15.4,8.2-21.9,12.8v295.1h-116.5V210.5h104l10.8,45.5h1.1
			c8-4.9,17.6-10.5,29-16.8c11.4-6.3,23.7-12.1,36.9-17.6c13.3-5.5,27-10.1,41.2-13.9c14.2-3.8,28.1-5.7,41.8-5.7
			c15.5,0,30.1,2.4,43.8,7.1c13.6,4.7,25.6,11.9,35.8,21.6c10.2,9.7,18.3,21.6,24.2,35.8c5.9,14.2,8.8,31,8.8,50.3v282.6H1617.7z"/>
		<path class="st0" d="M1913.3,599.4V79.2l-179.1-2.8l5.7-59.1h471.3l-5.7,57.4l-173.4,4.5v520.2H1913.3z"/>
	</g>
	<path class="st1" d="M486.4,557.8c-35.7-0.4-71.4,1.4-107,1.6c-73.6,0.4-72.8,0.2-73.1-73c-0.1-25.2,3.4-40.4,33.5-43.8
		c21.2-2.4,42.4-12.8,61.5-23.4c80-44.6,85.2-145.5,11-197.6c-71.5-50.2-190.8-51.2-262-1.4c-32.5,22.8-55.2,51.8-55,94.6
		c0.2,56,30.8,93.5,96.5,120.5c19.9,8.2,50.1,1.1,58.6,22.2c8.2,20.2,1,46.2,3,69.4c2.2,25.3-6,34.7-32.5,33.3
		c-49.1-2.6-98.4-2.6-147.7-2.4c-15.1,0-35.6-8.5-36.5,21.5c-0.9,29.5,18,23,34.2,23c69,0.1,137.9,0,206.9,0
		c70.2,0,140.4,0.1,210.6-0.1c16,0,35.3,7.1,34.4-22.7C522.1,549.6,501.5,558,486.4,557.8z M279.4,404.7
		c-34.9,1.8-66.9-6.6-95.1-25.7c-49.4-33.3-48-98.5,4.2-127.2c60.2-33.1,123-33.2,183,1c51.9,29.6,52.3,94.6,2.2,127.3
		C345.2,398.8,313.1,406.8,279.4,404.7z"/>
</g>
</svg>
