<?xml version="1.0" encoding="UTF-8"?>
<svg xmlns="http://www.w3.org/2000/svg" version="1.1" xmlns:xlink="http://www.w3.org/1999/xlink" viewBox="0 0 62 23">
  <defs>
    <linearGradient id="linear-gradient" x1="46.64" y1="2676.85" x2="36.23" y2="2704.91" gradientTransform="translate(0 -2708.9)" gradientUnits="userSpaceOnUse">
      <stop offset="0" stop-color="#d05c2a"/>
      <stop offset="1" stop-color="#59163e"/>
    </linearGradient>
    <linearGradient id="linear-gradient-2" x1="35.18" y1="2699.56" x2="25.69" y2="2749.7" gradientTransform="translate(0 -2708.9)" gradientUnits="userSpaceOnUse">
      <stop offset="0" stop-color="#d05c2a"/>
      <stop offset="1" stop-color="#59163e"/>
    </linearGradient>
    <linearGradient id="linear-gradient-3" x1="34.86" y1="2701.09" x2="22.69" y2="2763.34" gradientTransform="translate(0 -2708.9)" gradientUnits="userSpaceOnUse">
      <stop offset="0" stop-color="#d05c2a"/>
      <stop offset="1" stop-color="#59163e"/>
    </linearGradient>
    <linearGradient id="linear-gradient-4" x1="45.79" y1="2708.81" x2="42.86" y2="2716.66" gradientTransform="translate(0 -2708.9)" gradientUnits="userSpaceOnUse">
      <stop offset="0" stop-color="#d05c2a"/>
      <stop offset="1" stop-color="#59163e"/>
    </linearGradient>
    <linearGradient id="linear-gradient-5" x1="46.23" y1="2708.3" x2="39.26" y2="2724.48" gradientTransform="translate(0 -2708.9)" gradientUnits="userSpaceOnUse">
      <stop offset="0" stop-color="#d05c2a"/>
      <stop offset="1" stop-color="#59163e"/>
    </linearGradient>
    <linearGradient id="linear-gradient-6" x1="24.41" y1="2717.05" x2="21.48" y2="2724.91" gradientTransform="translate(0 -2708.9)" gradientUnits="userSpaceOnUse">
      <stop offset="0" stop-color="#d05c2a"/>
      <stop offset="1" stop-color="#59163e"/>
    </linearGradient>
    <linearGradient id="linear-gradient-7" x1="30.92" y1="2702.98" x2="13.87" y2="2741.84" gradientTransform="translate(0 -2708.9)" gradientUnits="userSpaceOnUse">
      <stop offset="0" stop-color="#d05c2a"/>
      <stop offset="1" stop-color="#59163e"/>
    </linearGradient>
    <linearGradient id="linear-gradient-8" x1="39.77" y1="2699.06" x2="34.83" y2="2708.42" gradientTransform="translate(0 -2708.9)" gradientUnits="userSpaceOnUse">
      <stop offset="0" stop-color="#d05c2a"/>
      <stop offset="1" stop-color="#59163e"/>
    </linearGradient>
    <linearGradient id="linear-gradient-9" x1="24.38" y1="2687.76" x2="17.03" y2="2705.94" gradientTransform="translate(0 -2708.9)" gradientUnits="userSpaceOnUse">
      <stop offset="0" stop-color="#d05c2a"/>
      <stop offset="1" stop-color="#59163e"/>
    </linearGradient>
    <linearGradient id="linear-gradient-10" x1="29.83" y1="2689.96" x2="22.48" y2="2708.14" gradientTransform="translate(0 -2708.9)" gradientUnits="userSpaceOnUse">
      <stop offset="0" stop-color="#d05c2a"/>
      <stop offset="1" stop-color="#59163e"/>
    </linearGradient>
    <linearGradient id="linear-gradient-11" x1="58.56" y1="2701.59" x2="50.72" y2="2719.56" gradientTransform="translate(0 -2708.9)" gradientUnits="userSpaceOnUse">
      <stop offset="0" stop-color="#d05c2a"/>
      <stop offset="1" stop-color="#59163e"/>
    </linearGradient>
  </defs>
  <!-- Generator: Adobe Illustrator 28.6.0, SVG Export Plug-In . SVG Version: 1.2.0 Build 709)  -->
  <g>
    <g id="Layer_1">
      <path d="M60.6,17.6c0-.4-.1-.9-.1-1.4,0-.4-.1-1-.1-1.4v-1c0-.4.1-.8,0-1-.1-.1-.3-.2-.4-.2-.2,0-.4-.1-.6-.1.3-.1.6-.1.9-.3q.1,0,.2-.1s0-.1.1-.2c.1-.6,0-1.3,0-1.9v-3.7c0-.2.1-.6,0-.9-.1-.1-.2-.1-.4-.1h-.4c-.2,0-.4,0-.6.1.3-.1.5-.1.9-.2.2,0,.4-.1.5-.2s.2-.1.3-.2v-2.2c0-.4-.2-.9-.5-1.2-.3-.3-.6-.5-1.1-.6-.1,0-.3-.1-.4-.1C40.2.1,21.9.1,3.9.7h-.2q-.1,0-.2.1c-.4-.1-.7.1-.8.2-.3.1-.5.3-.7.5-.1.1-.2.3-.2.4s-.1.1-.1.2c-.3.5-.5.8-.7,1.1-.2.3-.3.9-.3,1.3,0,.5,0,1.1.1,1.6.1.9,0,1.7.1,2.6,0,.1,0,.2.1.3q.1.1.2.1c.3.1.5.1.9.2-.3.3-.9.3-1.1.7-.1.1-.1.2-.1.4,0,.4-.1,1-.1,1.4v1.2c0,.4-.2,1.1,0,1.5.1.5.6.5,1.1.7-.2,0-.3.2-.4.3-.1.1-.1.2-.1.2,0,.1-.1.1-.1.2-.2.1-.2.3-.3.5,0,.1,0,.2-.1.3v2.2c0,.4-.1.9.1,1.2.2.4.4.8.9,1,.3.2.6.3,1,.3,18.1.8,36.4.8,55,0,.5,0,1-.2,1.3-.5.2-.1.3-.3.4-.5s.3-.5.4-.8c.2-.6.7-1.2.6-2Z" fill="url(#linear-gradient)"/>
      <path d="M58.6,19.9c-18.6.8-37,.8-55,0-.8,0-1.5-.5-1.8-1.3-.1-.3-.2-.6-.1-1v-.2c0-.1.1-.2.1-.3v-.1c0-.3,0-.5.1-.9,0-.1,0-.3.1-.4,0-.2.1-.3.2-.4.6-.4,1.7-.4,2.6-.4h1.6c-.9,0-1.8-.1-2.7-.2-.4-.1-.9-.1-1.3-.2-.1,0-.2-.1-.3-.1-.1-.1-.2-.1-.3-.2v-.6c0-.2,0-.4.1-.8,0-.2,0-.4.1-.5,0-.5.1-1,.1-1.5,0-.1,0-.3.1-.4q.1-.1.2-.1c.2-.3.4-.3.8-.4h.3c.1,0,.2-.1.3-.1,1.3-.1,2.6-.3,4-.4.1,0,.3,0,.4-.1-1.9-.3-4-.6-5.9-.8h-.2c-.1,0-.2,0-.2-.1v-.2c-.1-1.1,0-2.2,0-3.2v-.8c0-.5-.1-1.1-.1-1.1-.1-1.2.9-2.3,2-2.3C21.8.2,40.1.2,58.8.8c1.2,0,2.2,1.1,2,2.3v1.2c0,.1-.1.2-.1.2q-.1.1-.2.1c-.2.1-.4.1-.6.2-.3.1-.6.1-.9.2-1.8.2-3.6.4-5.4.5h-.3.4c2.3,0,4.5-.1,6.8-.1h.2c.1,0,.1.1.1.2v.3c0,.3-.1.5-.1.9,0,.2.1.5.1.8v1.2c0,.9-.1,1.7-.2,2.6,0,.1,0,.2-.1.3s-.2.1-.2.1h-.2c-1.3.4-2.8.1-4.1.3h-.3.3c1.5.1,3,.2,4.4.4.2,0,.3.1.4.2.2.2.2.3.2.5v1.7c0,.5.1,1.2.1,1.7,0,.3,0,.5.1.9-.5,1.3-1.4,2.4-2.6,2.4Z" fill="url(#linear-gradient-2)"/>
      <path d="M60.4,7.5v1.2c-.8.1-1.5.1-2.3.2-.2,0-.3,0-.5.1-.6.1-1.3.1-1.9.2-.3,0-.6,0-1,.1-.2,0-.4.1-.5.1-.3,0-.5,0-.9-.1h-1c-.6,0-1.3.1-1.8.1-1.2.2-2.5.4-3.7.6-1.9.3-4,.5-5.9.8,1.1.1,2.2.3,3.2.5-.4,0-.8.1-1.2.1-1.3.1-2.6.1-3.8.1h-7.6c-1.3,0-2.6,0-3.8.1-.6,0-1.3.1-1.9.1h-.4c-.2,0-.3.1-.5.1-1.5.2-3,.4-4.5.6-2.4.4-4.6.9-7,1.1-.4,0-.9.1-1.3.1-2,.4-4.2.5-6.2.8-.6.1-1.4.1-2,.1-.4-.1-.9-.1-1.3-.2-.1,0-.2-.1-.3-.1-.2-.1-.3-.1-.4-.2v-.6c0-.2,0-.4.1-.8,1.8-.1,3.7-.6,5.5-1,2.3-.3,4.5-.5,6.8-.6,2.6-.1,5.2.2,7.8.2,2.4,0,4.7-.2,7.1-.4,4.6-.3,9.3-.8,13.8-1.2-1,0-2,0-3-.1-1.3,0-2.6-.1-3.9-.2-.3,0-.6-.1-.9,0h-1c-.6,0-1.2-.1-1.8-.2-.3-.1-.6-.2-1.1-.2-.6-.1-1.2-.1-1.8-.1-2.3,0-4.5-.6-6.7-.6-.5,0-1.2.1-1.7.1-.6.1-1.3.1-1.8.1h-5c-2.9,0-5.8.1-8.6.1-1.2,0-2.5,0-3.7-.2v-.2c-.1-1.2,0-2.3,0-3.4v-.7c1.5-.1,2.9-.1,4.4-.2,2.9-.2,5.8-.3,8.7-.3,5.7,0,11.5.4,17.2.9,5.7.4,11.4,1,17.1,1.4,3,.1,5.9.2,8.8.2.9,0,1.7,0,2.6-.1,0,.3-.1.5-.1.9-.3.2-.3.4-.3.7ZM60.5,15v-1.3c-1.8-.2-3.7-.4-5.5-.5-3.1-.2-6.4-.2-9.5,0-.6,0-1.3,0-1.9.1-.3,0-.6.1-1,.1-1.3.1-2.5.3-3.8.3-.5,0-1,.1-1.5.1h11.1q.1,0,.2-.1h.9c.3,0,.6,0,1,.1.6,0,1.3.1,1.9.1,1,.1,2,.1,3,.2,1.1.1,2.2.2,3.2.3-2.5.2-5,.4-7.4.6-5.7.3-11.3.8-17,.6-5.6-.1-11.2-.4-16.8-.4-2.9,0-5.9.1-8.8.1-2.2.1-4.4,0-6.6.3,0,.1-.1.3-.1.4,0,.3,0,.5-.1.9,2.3.3,4.8.1,7.3.1,2.9,0,5.9,0,8.8.1,5.6.1,11.2.4,16.8.5,5.7.1,11.4-.3,17-.6,2.9-.1,5.9-.1,8.8-.2h.1c0-.6-.1-1.2-.1-1.8Z" fill="url(#linear-gradient-3)"/>
      <path d="M45.3,4.7c-1.2-.6-3.1-.4-4,.4-.5.5-.6,1.6,0,2.2,1.4,1.2,3.7.6,4.5-.8.7-.6.2-1.6-.5-1.8Z" fill="#ec934d"/>
      <path d="M45.5,4.2c-1.2-.6-3.1-.4-4,.4-.5.5-.6,1.6,0,2.2,1.4,1.1,3.7.6,4.5-.8.8-.7.4-1.7-.5-1.8Z" fill="url(#linear-gradient-4)"/>
      <path d="M45.3,4.5c-1.2-.6-3.1-.4-4,.4-.5.5-.6,1.6,0,2.2,1.4,1.2,3.7.6,4.5-.8.7-.6.2-1.6-.5-1.8Z" fill="url(#linear-gradient-5)"/>
      <path d="M23.3,14.4c-1.2-.6-3.1-.4-4,.4-.5.5-.6,1.6,0,2.2,1.4,1.2,3.7.6,4.5-.8.8-.6.4-1.6-.5-1.8Z" fill="#ec934d"/>
      <path d="M23.6,13.9c-1.2-.6-3.1-.4-4,.4-.5.5-.6,1.6,0,2.2,1.4,1.2,3.7.6,4.5-.8.7-.7.3-1.7-.5-1.8Z" fill="url(#linear-gradient-6)"/>
      <path d="M23.3,14.3c-1.2-.6-3.1-.4-4,.4-.5.5-.6,1.6,0,2.1,1.4,1.2,3.7.6,4.5-.8.8-.6.4-1.6-.5-1.7Z" fill="url(#linear-gradient-7)"/>
      <path d="M2.1,13.5c0,.2,0,.4.1.6-.1,0-.2,0-.3-.1v-.6c0-.5.1-.9.1-1.4s.1-1,.1-1.5c0-.1,0-.3.1-.4q.1-.1.2-.1c.2-.1.4-.1.8-.2h.3c.1,0,.2-.1.3-.1,1.3-.1,2.6-.3,4-.4-1.4.3-2.8.5-4.2.8-.3.1-.6,0-.9.2-.1.1-.2.2-.2.2,0,0-.2.5-.1.5,1.1,0,2,.1,3.1.1-.8.1-1.5.2-2.3.4-.4.1-.9.2-1,.5-.1.2-.1.5-.1.8q0,.1.1.2c-.1.1-.1.3-.1.5Z" fill="#ec934d"/>
      <path d="M54.3,12c.3,0,.8.1,1.1.1h-.2c-.3,0-.6-.1-.9-.1Z" fill="#ec934d"/>
      <path d="M59.8,11.5c.1-.2,0-.4,0-.8s-.1-.9-.1-1.3c0-.1,0-.2-.1-.2h-.2c-.5,0-1.1,0-1.6.1.5,0,1.2-.2,1.7-.4.1-.1.3-.2.3-.3v-.2c0-.6-.1-1.4-.2-2.2-.2-.2-.6-.3-1-.3-1.4-.1-2.9-.2-4.3-.2h-1.1c2.3,0,4.5-.1,6.8-.1h.2c.1,0,.1.1.1.2v1.2c0,.2.1.5.1.8,0,1.2-.1,2.5-.2,3.8,0,.1,0,.2-.1.3s-.2.1-.2.1h-.2c0-.3,0-.4.1-.5Z" fill="#ec934d"/>
      <path d="M1.7,4.7c0-.1-.1-1.7-.1-1.7-.1-1.2.9-2.3,2-2.3C21.6.1,39.9.1,58.6.7c1.2,0,2.2,1.1,2,2.3v1.2c0,.1-.1.2-.1.2q-.1.1-.2.1c-.2.1-.4.1-.6.2.2-.2.4-.4.5-.6.1-.2,0-.3,0-.5-.1-.2-.1-.5-.1-.8s0-.8-.2-1.1c-.2-.2-.4-.3-.8-.5-.6-.3-1.3-.3-2-.4h-.1c-1.3,0-2.5,0-3.8.1-.1,0-.3.1-.4.1h-.5c-.4,0-.9,0-1.3-.1-.9,0-1.7-.1-2.6-.1h-9.9c-.2,0-.3-.1-.5-.2h-.5c-.4,0-1,.1-1.4.1-.2,0-.4.1-.5.2,0,.1-.1.1-.1.2-.1.1-.3,0-.4,0-.3-.1-.6-.2-1-.2h-.9c-.2,0-.3-.1-.5-.1-.6-.1-1.4-.1-2.2-.2-.5,0-1.1-.1-1.6-.1-1.7-.1-3.4,0-5.1,0-.9,0-1.7.1-2.6.1-.4,0-.9.1-1.2.1-.1,0-.2-.1-.3-.1h-4.3c-.3,0-.6.1-1,.2-.1,0-.2.1-.4.1s-.4-.2-.6-.3c-.5-.2-1.1.2-1.6,0-.3-.1-.5-.1-.9-.1h-1.1c-1.2,0-2.5,0-3.7.2-.9,0-1.4,0-2.1.2-.3,0-.5.1-.8.2q-.1,0-.2.1c-.4.2-1.4,1.6-.7,2.1.2.1.5.2.9.1,1.8,0,3.7,0,5.4-.1-2,.1-3.9.3-5.9.5-.1,0-.2,0-.3.1-.3.2-.2.6-.3,1-.1.4,0,1,.1,1.4.1.5.1,1.2.2,1.7h-.2c-.1-.1-.2-.1-.2-.2v-.2c-.3-.7-.3-1.8-.3-2.9Z" fill="#ec934d"/>
      <path d="M58.6,19.9c-18.6.8-37,.8-55,0-.8,0-1.5-.5-1.8-1.3-.1-.3-.2-.6-.1-1v-.2c0-.1.1-.2.1-.3,0-.3.1-.6.1-1,0-.3.1-.6.3-.9.6-.4,1.7-.4,2.6-.4.8,0,1.4,0,2.2.1-.2,0-.4.1-.6.1h-.9c-.5,0-1.1.1-1.6.1-.4,0-.8,0-1.2.2-.1,0-.3.1-.3.2-.1.1-.1.3-.2.4-.2.4-.3.8-.2,1.1,0,.1,0,.2.1.3v.3c0,.3,0,.6.1,1,.3.8,1.2,1.1,2,1.2,1,.2,1.9.3,2.8.2h8c.4,0,.9,0,1.3.1h3.1c.2,0,.4-.1.8,0,.3.1.8.1,1.1.1h3.2c.3,0,.6,0,1-.1.1-.1.3-.1.4-.2.4-.1,1,.1,1.4.3.5.2,1.2.1,1.8.1.9.1,1.6.1,2.5,0,.4,0,.8-.1,1.2-.3.2-.1.3-.2.5-.2s.4.2.6.3c.6.4,1.5.4,2.3.3.6-.1,1.3-.2,2-.1h2c2.8,0,5.7,0,8.5-.1,1.2,0,2.4-.1,3.6-.2.6,0,1.3-.1,1.9-.1.3,0,.6-.1,1-.1,1-.1,1.9-.1,2.9-.1.5,0,1.2-.1,1.6-.4.3-.2.5-.4.6-.8,0-.1.1-.3,0-.4v-2.5h-.1c-.2,0-.3-.1-.4-.1.2-.1.4-.2.5-.4v-.3c0-.2,0-.5-.1-.8s-.1-.4-.3-.5c-1.3-.3-2.6-.6-4-1,1.5.1,3,.2,4.4.4.2,0,.3.1.4.2.1.1.1.2.1.4v1.7c0,.9.1,1.7.1,2.6-.2,1-1.1,2.1-2.3,2.1Z" fill="#ec934d"/>
      <path d="M26.2,3.8c-1.9.3-4,.3-5.9-.1,1.9-.1,4,.1,5.9.1Z" fill="#ec934d"/>
      <path d="M42.4,5.4c-1,.2-2,.1-3,.1-2.8-.1-5.6-.2-8.2-1.2,1.5,0,3.1.2,4.6.4,2.2.3,4.4.6,6.6.7Z" fill="#ec934d"/>
      <path d="M43.6,5.4c-.8,0-1.5-.1-2.2-.2-3.3-.3-6.6-.8-9.9-1.1-3.6-.4-7.1-.8-10.8-.5h-1.5c2.2.2,4.4.3,6.6.2.9,0,1.7-.1,2.6,0,.6.1,1.4.2,2,.4,1.3.3,2.6.5,3.9.6,3.7.5,7.2.6,10.9.6-.5.1-.9,0-1.6,0Z" fill="url(#linear-gradient-8)"/>
      <path d="M14.7,8.5c-1.7.2-3.6.2-5.3,0,1.7-.1,3.5-.1,5.3,0Z" fill="#ec934d"/>
      <path d="M16.1,8.5c-2.5,0-5-.1-7.4,0,.3,0,.6-.1.9-.1s.6-.1,1-.1c.6-.1,1.2-.1,1.8,0h.7c.3,0,.6,0,1,.1.6,0,1.3.1,1.9.2q0-.1.1-.1Z" fill="url(#linear-gradient-9)"/>
      <path d="M20.8,12.6c-.6.2-1.4.5-2,.8-.4.2-.9.3-1.3.4-.5.1-1.2.2-1.7.2-1.5.1-3,.2-4.4-.2,3.2.1,6.3-.6,9.4-1.2Z" fill="#ec934d"/>
      <path d="M23.8,11.8c-1.7.4-3.4.9-5.2,1.3-.9.2-1.6.4-2.5.5-1.1.1-2,.2-3.1.2h-2.8c.3-.1.8-.1,1.1-.1h.4c.8-.1,1.5-.1,2.3-.1s1.6-.2,2.4-.3c1.3-.2,2.5-.4,3.8-.6,1.3-.3,2.5-.7,3.6-.9Z" fill="url(#linear-gradient-10)"/>
      <path d="M53.6,15.2c-1.4.5-3,.4-4.4.3h-1c-.2,0-.4.1-.6.1-.9.2-1.8.3-2.7.4-.9,0-1.8,0-2.7-.3,2.4.4,4.8-.3,7.2-.4h1.8c.9-.1,1.6-.1,2.4-.1Z" fill="#ec934d"/>
      <path d="M41.3,15.6c1.3.2,2.6.3,3.9.2.9-.1,1.7-.2,2.5-.3,1-.1,2-.1,3-.1,1.8,0,3.6-.2,5.4-.4h-2.8c-1,0-1.9.1-2.9.2-1,.1-1.9.2-2.9.2-1,.1-1.9.2-2.9.2s-1.9.1-2.9,0c-.2,0-.3,0-.4,0Z" fill="url(#linear-gradient-11)"/>
    </g>
  </g>
</svg>