<?xml version="1.0" encoding="UTF-8"?>
<svg xmlns="http://www.w3.org/2000/svg" version="1.1" xmlns:xlink="http://www.w3.org/1999/xlink" viewBox="0 0 209 43">
  <defs>
    <linearGradient id="linear-gradient" x1="148.29" y1="2591.91" x2="119.71" y2="2668.96" gradientTransform="translate(0 -2688.9)" gradientUnits="userSpaceOnUse">
      <stop offset="0" stop-color="#d05c2a"/>
      <stop offset="1" stop-color="#59163e"/>
    </linearGradient>
    <linearGradient id="linear-gradient-2" x1="114.22" y1="2659.18" x2="90.36" y2="2785.27" gradientTransform="translate(0 -2688.9)" gradientUnits="userSpaceOnUse">
      <stop offset="0" stop-color="#d05c2a"/>
      <stop offset="1" stop-color="#59163e"/>
    </linearGradient>
    <linearGradient id="linear-gradient-3" x1="115.15" y1="2658.54" x2="82.02" y2="2828.02" gradientTransform="translate(0 -2688.9)" gradientUnits="userSpaceOnUse">
      <stop offset="0" stop-color="#d05c2a"/>
      <stop offset="1" stop-color="#59163e"/>
    </linearGradient>
    <linearGradient id="linear-gradient-4" x1="107.64" y1="2748" x2="105.83" y2="2717.24" gradientTransform="translate(0 -2688.9)" gradientUnits="userSpaceOnUse">
      <stop offset="0" stop-color="#d05c2a"/>
      <stop offset="1" stop-color="#59163e"/>
    </linearGradient>
    <linearGradient id="linear-gradient-5" x1="191.78" y1="2699.54" x2="185.5" y2="2716.37" gradientTransform="translate(0 -2688.9)" gradientUnits="userSpaceOnUse">
      <stop offset="0" stop-color="#d05c2a"/>
      <stop offset="1" stop-color="#59163e"/>
    </linearGradient>
    <linearGradient id="linear-gradient-6" x1="212.73" y1="2651.93" x2="158.86" y2="2777.14" gradientTransform="translate(0 -2688.9)" gradientUnits="userSpaceOnUse">
      <stop offset="0" stop-color="#d05c2a"/>
      <stop offset="1" stop-color="#59163e"/>
    </linearGradient>
    <linearGradient id="linear-gradient-7" x1="182.28" y1="2698.11" x2="178.32" y2="2708.72" gradientTransform="translate(0 -2688.9)" gradientUnits="userSpaceOnUse">
      <stop offset="0" stop-color="#d05c2a"/>
      <stop offset="1" stop-color="#59163e"/>
    </linearGradient>
    <linearGradient id="linear-gradient-8" x1="195.45" y1="2668.06" x2="161.48" y2="2747.03" gradientTransform="translate(0 -2688.9)" gradientUnits="userSpaceOnUse">
      <stop offset="0" stop-color="#d05c2a"/>
      <stop offset="1" stop-color="#59163e"/>
    </linearGradient>
    <linearGradient id="linear-gradient-9" x1="21.01" y1="2706.71" x2="17.05" y2="2717.32" gradientTransform="translate(0 -2688.9)" gradientUnits="userSpaceOnUse">
      <stop offset="0" stop-color="#d05c2a"/>
      <stop offset="1" stop-color="#59163e"/>
    </linearGradient>
    <linearGradient id="linear-gradient-10" x1="34.24" y1="2676.68" x2=".27" y2="2755.65" gradientTransform="translate(0 -2688.9)" gradientUnits="userSpaceOnUse">
      <stop offset="0" stop-color="#d05c2a"/>
      <stop offset="1" stop-color="#59163e"/>
    </linearGradient>
  </defs>
  <!-- Generator: Adobe Illustrator 28.6.0, SVG Export Plug-In . SVG Version: 1.2.0 Build 709)  -->
  <g>
    <g id="Layer_1">
      <path d="M207.9,34c-.1-.9-.1-1.7-.1-2.6s-.1-1.8-.1-2.7c0-.6-.1-1.3-.1-1.9,0-.5.2-1.4-.1-1.9-.1-.3-.5-.3-.9-.4s-.9-.1-1.2-.2c.5-.1,1.1-.3,1.6-.5.1,0,.2-.1.3-.2s.1-.2.1-.3c.2-1.2.1-2.5.1-3.7v-7.2c0-.4.1-1.2,0-1.6-.1-.3-.4-.2-.8-.3h-.8c-.4,0-.8.1-1.2.1.5-.1,1.1-.2,1.6-.3.3-.1.6-.2,1-.4.2-.1.4-.2.5-.4,0-.1.1-.2.1-.3,0-.2.1-.4.1-.6,0-.6.1-1.2.1-1.8v-1c0-.2-.1-.4-.1-.5-.1-.9-.4-1.6-.9-2.3-.5-.6-1.2-1.1-1.9-1.3-.3-.1-.5-.1-.9-.1C171.2.1,38.1.1,6,1.3h-.4c-.1,0-.2.1-.4.1-.3.1-.6.2-.8.3-.5.2-1,.5-1.3,1.1-.2.3-.3.5-.4.8-.1.2-.3.3-.3.5-.3.7-.6,1.5-1.1,2.1-.5.7-.7,1.6-.6,2.4.1,1.1.1,2.2.2,3.1.1,1.7,0,3.3.2,5.1,0,.2.1.5.2.6s.3.1.4.2c.5.1,1,.2,1.5.3-.6.4-1.5.4-1.8,1.2-.1.2-.1.5-.1.8-.1.9-.1,1.8-.2,2.7,0,.4,0,.9-.1,1.2,0,.4,0,.8-.1,1.2-.1.9-.3,2,0,2.9.2.9,1.2.9,1.9,1.1-.3,0-.6.3-.9.6-.1.1-.2.3-.3.5-.1.1-.2.3-.2.4-.1.3-.2.6-.3,1-.1.2-.1.4-.1.6v4.3c0,.8-.2,1.5.1,2.4.3.8.9,1.4,1.5,1.8.5.3,1.2.5,1.8.5,32.2,1.5,165.4,1.5,198.7,0,.9,0,1.7-.4,2.4-1.1.3-.3.5-.5.9-1,.3-.4.5-1,.8-1.4.1-.9.8-2.2.7-3.6Z" fill="url(#linear-gradient)"/>
      <path d="M204.3,38.3c-33.3,1.5-166.4,1.5-198.7,0-1.4,0-2.8-1.1-3.3-2.5-.3-.7-.4-1.3-.3-1.9v-.3c0-.2.1-.3.1-.5v-.3c0-.5.1-1.1.1-1.6,0-.3.1-.6.1-.9.1-.3.2-.6.4-.9,1.1-.9,3.1-.9,4.6-.9h.9c.6,0,1.3-.1,2-.1-1.6,0-3.2-.1-4.7-.4-.8-.1-1.5-.3-2.3-.5-.2,0-.3-.1-.5-.2s-.4-.3-.5-.5-.1-.4-.1-.6v-.6c0-.4.1-.9.1-1.4,0-.3.1-.8.1-1.1,0-1,.1-1.9.2-2.9,0-.3,0-.6.2-.9.2-.3.3-.4.5-.4.4-.2.9-.3,1.3-.3.2,0,.4,0,.6-.1s.4-.1.6-.1c2.4-.3,4.7-.5,7-.9.3,0,.5-.1.9-.1-3.5-.4-7.1-1-10.6-1.4-.1,0-.3,0-.4-.1-.1,0-.3,0-.4-.1-.2-.1-.2-.2-.2-.3-.1-2,0-4.2-.1-6.2,0-.1,0-.6-.1-1.4,0-1-.1-2-.1-2-.1-2.4,1.5-4.4,3.7-4.4C37.5.3,170.6.3,204,1.5c2.2.1,3.8,2,3.7,4.4-.1.8.1,1.5-.1,2.4,0,.2-.1.3-.2.5-.1.1-.3.1-.4.2-.4.1-.8.2-1.2.3-.5.1-1.1.2-1.6.3-3.2.3-6.5.8-9.7,1.1h-.5.8c4-.1,8.1-.1,12.1-.2.1,0,.2,0,.3.1s.1.2.1.3v.5c0,.5-.1,1.1-.1,1.6s.1,1,.1,1.5c0,.8,0,1.5-.1,2.3-.1,1.7-.2,3.3-.3,5.1,0,.2-.1.5-.2.6-.1.1-.3.2-.4.3-.1,0-.2.1-.3.1-2.4.8-5,.1-7.4.6-.1,0-.3.1-.4.1h-.1.6c2.7.2,5.3.5,8,.9.3,0,.6.1.9.3.1.2.1.5.1.8v3.5c0,1.1.1,2.3.2,3.3,0,.5.1,1.1.1,1.6,0,2.2-1.7,4.2-3.7,4.3Z" fill="url(#linear-gradient-2)"/>
      <path d="M207.4,14.5c0,.8,0,1.5-.1,2.3-1.4.1-2.7.2-4,.4-.3,0-.6.1-.9.1-1.1.1-2.3.2-3.3.3-.5,0-1.1.1-1.7.1-.3,0-.6.2-1.1.2-.5.1-1.1-.1-1.5-.1h-1.6c-1.1,0-2.3.1-3.3.2-2.3.3-4.4.8-6.6,1.1-3.6.6-7.1,1.1-10.6,1.4,1.9.2,3.9.5,5.7,1-.8.1-1.4.1-2.2.2-2.3.1-4.5.2-6.8.2h-13.6c-2.3,0-104.9.1-107.2.2-1.1.1-2.3.1-3.3.2-.3,0-.5,0-.9.1-.3,0-.6.1-1,.2-2.7.3-5.4.8-8.1,1.3-4.1.9-8.3,1.7-12.5,2-.8,0-1.5.1-2.3.1-3.7.8-7.5,1-11.1,1.4-1.2.2-2.5.2-3.7.3-.8-.1-1.5-.3-2.3-.5-.2,0-.3-.1-.5-.2.1,0-.1-.2-.2-.5-.1-.2-.1-.4-.1-.6v-.6c0-.4.1-.9.1-1.4,3.2-.3,6.6-1.3,9.7-1.8,4-.6,8.1-1,12.2-1.2,4.6-.3,9.2.3,13.8.3,4.2,0,108.9-.4,113.1-.8,8.2-.8,16.5-1.5,24.7-2.3-1.8,0-3.6-.1-5.4-.1-2.3-.1-4.5-.2-6.8-.3-.5,0-1.1-.1-1.6,0s-1.1.1-1.6.1c-1.1,0-2.2-.2-3.2-.4-.6-.2-1.2-.3-1.8-.5-1.1-.2-2.2-.1-3.2-.1-4-.1-108.3-1.2-112.4-1.2-1.1,0-2.2.1-3.1.2-1.1.1-2.3.2-3.3.2-.5,0-1,0-1.5-.1-.3-.1-.8,0-1.2-.1h-2c-1.4,0-2.7,0-4.1-.1-5.2,0-10.3.3-15.5.2-2.2,0-4.4-.1-6.6-.4-.1-.1-.1-.2-.1-.3-.1-2,0-4.2-.1-6.2,0-.1,0-.6-.1-1.4,2.2-.3,4.9-.4,7.5-.6,5.2-.4,10.3-.5,15.5-.5,10.2,0,120.8.8,131.1,1.6,10.2.9,20.5,1.8,30.7,2.7,5.2.4,10.3.6,15.5.6,1.5,0,3-.1,4.6-.2,0,.5-.1,1.1-.1,1.6-.1.7,0,1.2,0,1.7ZM207.5,28.9v-2.6c-3.2-.4-6.6-.8-9.8-1-5.6-.4-11.3-.3-16.9-.1-1.2,0-2.4.1-3.4.2-.5.1-1.1.1-1.7.2-2.3.3-4.5.5-6.8.8-.9.1-1.7.1-2.7.2h19.7c.1,0,.3-.1.4-.1.5-.1,1.1,0,1.6.1.5,0,1.2.1,1.7.1,1.2.1,2.3.1,3.4.2,1.8.1,3.6.3,5.4.4,1.9.2,3.9.4,5.8.6-4.4.4-8.8,1-13.1,1.2-10.1.6-20.2,1.4-30.4,1.2-10-.2-120.4-.9-130.4-.8-5.3,0-10.6.1-15.8.3-3.9.1-7.9.1-11.7.5-.1.3-.1.6-.1.9,0,.5-.1,1.1-.1,1.6,4.3.2,8.7-.1,13-.1,5.3,0,10.6,0,15.8.2,10,.2,120.4.9,130.3,1.1,10.1.2,20.4-.5,30.5-1.2,5.3-.3,10.4-.3,15.7-.3h.1c-.3-1.3-.4-2.4-.5-3.6Z" fill="url(#linear-gradient-3)"/>
      <path d="M2.9,26c0,.4,0,.9.1,1.3-.2-.1-.4-.3-.5-.5s-.1-.4-.1-.6v-.6c0-.9.2-1.6.2-2.5,0-1,.1-1.9.2-2.9,0-.3,0-.6.2-.9.1-.2.2-.3.4-.3.4-.2.9-.3,1.3-.3.2,0,.4,0,.6-.1s.4-.1.6-.1c2.4-.3,4.7-.5,7-.9-2.5.5-5.1,1.1-7.5,1.6-.5.1-1.2.1-1.5.4q-.1.1-.2.2c-.1.1-.1.2-.2.2-.1.1-.2.3-.2.5-.2.5-.2,1.1-.3,1.6v.9q0,.1-.1.1c-.1.4-.1.9,0,1.3,0,.1.1.3.1.4,0,.5-.1.9-.1,1.2Z" fill="#ec934d"/>
      <path d="M196.6,23.2c.6.1,1.3.1,1.9.2-.1,0-.3.1-.4.1-.5-.2-.9-.3-1.5-.3Z" fill="#ec934d"/>
      <path d="M206.3,22.1c.1-.4.1-.9,0-1.4-.1-.9-.1-1.7-.2-2.5,0-.2,0-.3-.1-.4s-.2-.1-.3-.1c-1,0-1.9.1-2.9.1,1.1-.1,2-.4,3-.9.3-.1.5-.3.6-.6v-.5c0-1.3-.2-2.8-.3-4.1-.4-.4-1.2-.5-1.8-.5-2.6-.2-5.1-.3-7.6-.5-.6,0-1.3-.1-1.9-.1,4-.1,8.1-.1,12.1-.2.1,0,.2,0,.3.1s.1.2.1.3c.1.8-.1,1.4-.1,2.1,0,.5.1,1,.1,1.5,0,2.4-.1,4.8-.4,7.2,0,.2-.1.5-.2.6-.1.1-.3.2-.4.3-.1,0-.2.1-.3.1.1,0,.2-.2.3-.5Z" fill="#ec934d"/>
      <path d="M2.1,9.1c0-.3-.1-3.4-.2-3.4-.1-2.3,1.5-4.3,3.7-4.3C37.7.2,170.8.2,204.2,1.4c2.2.1,3.8,2,3.7,4.4-.1.8.1,1.5-.1,2.4,0,.2-.1.3-.2.5-.1.1-.3.1-.4.2-.4.1-.8.2-1.2.3.3-.3.8-.8.9-1.2.1-.3,0-.6-.1-1-.1-.5-.2-1-.2-1.5,0-.6.1-1.5-.4-2-.3-.4-.9-.8-1.3-1-1.1-.5-2.4-.8-3.6-.8h-.2c-2.3-.1-4.4-.1-6.7.1-.3,0-.5.1-.8.2s-.8,0-1.1,0c-.8,0-1.5-.1-2.3-.1-1.5-.1-3-.1-4.5-.1h-17.6c-.3-.1-.6-.3-1-.3-.3,0-.6,0-1,.1-.9.1-1.6.1-2.5.2-.3,0-.8.1-1.1.4-.1.1-.1.2-.2.3-.2.2-.5.1-.9,0-.5-.2-1.1-.3-1.7-.3-.5,0-1,.1-1.5,0-.3,0-.6-.1-1-.2-1.3-.2-2.6-.3-3.8-.4-1-.1-1.8-.1-2.8-.2-3-.1-106.4-.1-109.5.1-1.5.1-3,.1-4.5.2-.6,0-1.5.2-2.2.1-.2,0-.4-.1-.5-.1h-6c-.3,0-.6.1-1,.1s-.5-.1-.9-.1c-.6,0-1.3.1-1.8.4-.2.1-.4.2-.6.2-.4,0-.8-.4-1.2-.6-1-.5-1.9.4-2.9.1-.4-.2-1-.1-1.5-.2h-1.9c-2.2,0-4.4.1-6.6.3-.9.2-2,.5-3.1.7-.5.1-1,.2-1.6.3-.2,0-.3,0-.4.1-.7.5-2.4,3.2-1.2,4.2.1.1.2.1.2.1.1.1.3.1.4.1.1.1.3,0,.4,0h1.1c.4,0,.8,0,1.2.1-.8.2-1.6.3-2.4.6-.3.1-.6.1-.8.2h-.1c-.2.1-.3.3-.3.4-.2.4-.1,1-.1,1.5-.1.9,0,1.8.1,2.7.1,1.1.2,2.3.4,3.3-.1,0-.3,0-.4-.1-.1,0-.3,0-.4-.2-.1-.1-.1-.2-.1-.3-.3-2.3-.2-4.4-.3-6.5Z" fill="#ec934d"/>
      <path d="M207.8,34c-.1-1.7-.2-3.3-.3-5.1v-3.4c0-.2,0-.5-.1-.8-.2-.3-.5-.3-.9-.3-2.7-.3-5.3-.6-8-.9,2.4.5,4.8,1.1,7.1,1.8.4.1.4.5.6,1,.2.4.2,1,.2,1.4v.6c-.1.4-.5.6-1,.9.3.1.5.2.9.2q.1,0,.2.1c.1.1.1.2.1.2.1.9,0,1.6,0,2.5v1.6c0,.1.1.3.1.4,0,.3,0,.6-.1,1-.2.6-.5,1.2-1.1,1.5-.9.6-1.9.8-3,.9-1.7.1-3.4.1-5.2.3-.5,0-1.2.1-1.7.2-1.2.1-2.3.2-3.4.3-2.2.1-4.3.3-6.5.3-5.1.2-10.1.2-15.2.1h-1.8c-.5,0-1,.1-1.5,0-1.2-.1-2.4.1-3.6.2-1.4.2-2.9.2-4.1-.5-.4-.2-.8-.5-1.2-.5-.3,0-.8.2-1.1.4-.6.3-1.3.5-2,.6-1.5.2-2.9.1-4.4,0-1.1-.1-102.6.1-103.6-.3-.8-.3-1.6-.8-2.5-.5-.3.1-.5.2-.9.3-.5.2-1.1.3-1.7.3h-1.1c-1.5.1-3,0-4.5,0-.6,0-1.3,0-1.9-.2-.4-.1-.9,0-1.3,0-1.8.1-3.7.1-5.5.1-.8,0-1.5-.1-2.3-.1-.3,0-.8-.1-1.1-.1-.2,0-.4.1-.8.1h-4.5c-2.6,0-5.2-.1-7.9-.1-1.8.2-3.2-.1-5.1-.4-1.4-.3-3-1-3.7-2.4-.2-.6-.3-1.3-.3-1.9v-.5c0-.2-.1-.3-.1-.5-.1-.5.1-1.3.2-1.8.1-.3.1-.6.3-.9.2-.2.4-.3.6-.4.6-.2,1.3-.3,2-.3,1-.1,1.9-.1,2.9-.2h.5v-.3h-1.8c-1.5,0-3.7,0-4.6.9-.4.4-.5,1.1-.6,1.7,0,.6-.1,1.3-.1,1.8,0,.2-.1.3-.1.5v.3c0,.6,0,1.3.2,1.9.5,1.4,1.8,2.5,3.3,2.5,32.2,1.5,165.4,1.5,198.7,0,2.8-.3,4.5-2.3,4.3-4.5Z" fill="#ec934d"/>
      <path d="M7.9,21.6v2.5c0,.1.1.2.1.4v1.2c0,.8.1,1.6.1,2.4,0,1,.1,2,.1,3,0,.5.1,1.1.4,1.5,0,.1.1.2.2.3.1.1.2.2.4.3.5.3,1.2.4,1.8.5,1,.2,1.9.2,2.9.2,12.8.5,126,1,138.8.6,1.6,0,3.2-.1,4.6.5-.6-1.3-2.3-1.5-3.7-1.5-14-.1-128.6-.5-142.9-1.8-.4,0-.9-.1-1.1-.4-.2-.2-.3-.5-.3-.9-.8-3.1-.9-6.5-.4-9.7,0-.2.1-.4.1-.6v-1.9c-.1-.1-.2-.1-.3-.1-.3,0-.5.1-.9.1v2.5c.1.4.1.6.1.9Z" fill="#ec934d"/>
      <path d="M158.2,35.4c.1-.4.6-.5,1.1-.5,3.4-.1,6.9-.1,10.3-.2,3.2-.1,6.6-.1,9.8-.2,1.1,0,2.2,0,3,.6,0-.1,0-.3-.1-.4.3-.1.8-.1,1.1-.1.2,0,.4-.1.6-.1.4-.1,1-.1,1.5-.1,2.7-.1,5.4-.2,8.1-.3.6,0,1.4-.1,2-.1.6-.1,1.4-.1,2-.2.1,0,.2,0,.3-.1h.4c.6-.1,1.4-.2,2-.5.8-.4,1.5-1.1,1.7-1.9.1-.4.1-.9.1-1.2.1-1.9.1-3.8-.1-5.7-.1-.1-.3.1-.3.2-.3,1.4-.5,2.8-.8,4.2-.1.9-.2,1.7-.6,2.4-.5.8-1.4,1-2.3,1.2-4.4,1.1-9,1.2-13.6,1.3-4.2.1-8.5.2-12.7.3-3.6-.1-7.2.4-10.7.1-1-.1-1.9-.3-3-.1q-.1,0-.2.1s0,.1-.1.1c0,.2.3.7.5,1.2Z" fill="#ec934d"/>
      <path d="M202.1,27.3v-9.4c0-1.8,0-3.8-.1-5.6,0-.3-.1-.8-.1-1.1,0-.5-.1-1-.3-1.5-.3-.8-.8-1.4-1.2-1.9-1.1-1.3-2.5-1.4-4.1-1.4-1.6-.1-3.2,0-4.8,0h-5.4c-2.2,0-4.4,0-6.6-.1-2.2,0-4.4,0-6.6-.1h-3.9c-.1,0-.3.1-.4.1-.5,0-1.1-.1-1.5-.2.1-1.2.2-2.5.5-3.5-.4,1.2-1,2.4-1.5,3.5,0,.1-.1.1-.1.2h-.2c-.2,0-.3,0-.5-.1-.6-.2-.9-.2-1.3-.2H34.9c-.4,0-.9,0-1.2.1-.4.1-1,0-1.4,0-.2,0-.5,0-.6-.2-.2-.1-.3-.4-.3-.6-.2-.5-.3-1-.5-1.5,0,.5.1,1.2.2,1.7,0,.2,0,.4-.1.5h-.2c-.2,0-.4.1-.5,0-.3-.1-.8-.1-1.1-.1h-12.2c-2.3,0-7.8-1.3-8.5,2-.1.4-.1,1-.1,1.4-.1,1.4,0,2.9,0,4.3.1,4.7.2,9.5.3,14.2,0,.8.1,1.5.1,2.2.1.5,0,1.3.4,1.7.1.1.2.3.3.4.2.3.6.6,1,.8.9.4,1.7.5,2.7.5,2.9.1,5.9.3,8.8.4,2.9.1,5.9.2,8.8.2,2.9.1,5.9.1,8.8.1h112.6c1.5,0,3.2-.5,4.6.2.6.4,1.3,1,1.6,1.7v-1.8c1.1-.2,2.2-.2,3.2-.3.4,0,.9.1,1.4.1h1.6c2.2,0,4.4,0,6.6-.1h4.1c2.9,0,5.9-.1,8.8-.2.5,0,1.1,0,1.6-.1,4.1-.2,8.2-.4,12.2-.8.3,0,.6-.1,1-.1.5-.1,1-.3,1.4-.6.5-.4,1.1-1,1.4-1.6.5-.9.4-2,.4-3.2ZM199.8,29.5c-.2.4-.6.8-1,1.1-.1.1-.2.1-.5.2-.2,0-.5.1-.8.1-3.9.3-8,.5-12.2.8-.5,0-1.1,0-1.6.1-3.1.1-6,.2-8.8.2-8.4.1-16.7.2-24.7.2H39.2c-2.9,0-5.9-.1-8.8-.1-2.9-.1-5.9-.1-8.8-.2s-5.9-.2-8.8-.4c-.6,0-1.4-.1-1.8-.3-.2-.2-.3-.2-.3-.2-.1-.1-.2-.3-.3-.4v-.6c-.1-.6-.1-1.3-.1-2-.2-4.7-.3-9.5-.3-14.1v-5.2c.1-.3.9-.5,2.4-.5.8,0,1.6.1,2.4.1.6.1,1.2.1,1.7.1h138c6.8,0,13.8.1,20.5.2,5.3.1,10.8.1,16,.1h4.7c1.4.1,2.2.1,2.5.6.4.5.6,1,.9,1.4.1.3.1.4.1.5,0,.4,0,.9.1,1.2v.3c.1,1.3.1,2.6.1,4.1v1.3l.1,9.5v.6c.6.4.6.9.3,1.3Z" fill="url(#linear-gradient-4)"/>
      <path d="M7.9,18.6l2.5-.5-.1-.2-2.6.3.2.4Z" fill="#ec934d"/>
      <path d="M199.4,10.9l2.8.2v-.6l-3,.1.2.3Z" fill="#ec934d"/>
      <path d="M199.6,23.9l3,.6v-.5l-3.3-.3.3.2Z" fill="#ec934d"/>
      <path d="M190.5,21c-2.4-1.4-6.2-1-8.2,1-1.2,1.2-1.2,3.4,0,4.6,2.7,2.7,7.5,1.5,9.3-1.7l.1-.1c1.3-1.4.4-3.5-1.2-3.8Z" fill="#ec934d"/>
      <path d="M191,19.8c-2.4-1.4-6.2-1-8.2,1-1.2,1.2-1.2,3.4,0,4.6,2.7,2.7,7.5,1.5,9.3-1.7l.1-.1c1.4-1.5.4-3.5-1.2-3.8Z" fill="url(#linear-gradient-5)"/>
      <path d="M190.5,20.5c-2.4-1.4-6.2-1-8.2,1-1.2,1.2-1.2,3.4,0,4.6,2.7,2.7,7.5,1.5,9.3-1.7l.1-.1c1.3-1.3.4-3.5-1.2-3.8Z" fill="url(#linear-gradient-6)"/>
      <path d="M181.5,15.7c-1.5-.9-4-.6-5.2.5-.8.8-.8,2.2,0,2.9,1.7,1.6,4.7,1,5.8-1.1l.1-.1c.8-.6.3-2-.7-2.2Z" fill="#ec934d"/>
      <path d="M181.9,14.9c-1.5-.9-4-.6-5.2.5-.8.8-.8,2.2,0,2.9,1.7,1.6,4.7,1,5.8-1.1l.1-.1c.9-.6.2-1.9-.7-2.2Z" fill="url(#linear-gradient-7)"/>
      <path d="M181.5,15.5c-1.5-.9-4-.6-5.2.5-.8.8-.8,2.2,0,2.9,1.7,1.6,4.7,1,5.8-1.1l.1-.1c.8-.7.3-2-.7-2.2Z" fill="url(#linear-gradient-8)"/>
      <path d="M20.3,24.4c-1.5-.9-4-.6-5.2.5-.8.8-.8,2.1,0,2.9,1.7,1.6,4.7,1,5.8-1.1l.1-.1c.8-.7.3-2.1-.7-2.2Z" fill="#ec934d"/>
      <path d="M20.6,23.5c-1.5-.9-4-.6-5.2.5-.8.8-.8,2.2,0,2.9,1.7,1.6,4.7,1,5.8-1.1l.1-.1c1-.6.3-1.9-.7-2.2Z" fill="url(#linear-gradient-9)"/>
      <path d="M20.3,24.1c-1.5-.9-4-.6-5.2.5-.8.8-.8,2.2,0,2.9,1.7,1.6,4.7,1,5.8-1.1l.1-.1c.8-.7.3-2-.7-2.2Z" fill="url(#linear-gradient-10)"/>
    </g>
  </g>
</svg>