<?xml version="1.0" encoding="UTF-8"?>
<svg xmlns="http://www.w3.org/2000/svg" version="1.1" viewBox="0 0 40 40">
  <!-- Generator: Adobe Illustrator 28.6.0, SVG Export Plug-In . SVG Version: 1.2.0 Build 709)  -->
  <g>
    <g id="Layer_1">
      <path d="M40,20.1c0,10.8-8.8,19.7-19.7,19.7-11,0-19.8-8.8-19.8-19.7S9.3.3,20.2.3c11,.1,19.8,8.9,19.8,19.8Z" fill="#f8a12e"/>
      <path d="M33.3,12c1.8,0,3.5.1,5.1.3C35.4,5.3,28.5.4,20.3.4c-10.9,0-19.7,8.8-19.7,19.8,0,3.6,1,6.9,2.6,9.8,1.2-10.1,14.2-18,30.1-18Z" fill="#f6bf29"/>
      <path d="M33.6,19.9c0,7.6-5.9,13.8-13.3,13.8s-13.3-6.1-13.3-13.8,5.9-13.8,13.3-13.8c7.4,0,13.3,6.3,13.3,13.8Z" fill="#c17d2a"/>
      <path d="M33.6,19.8c0,7.2-5.9,13.2-13.3,13.2s-13.2-5.9-13.2-13.2,5.9-13.2,13.3-13.2c7.3.2,13.2,6,13.2,13.2Z" fill="#562d2d"/>
      <path d="M8,12.3c-.7.9-1.7.4-1.2-.6.1-.2,1.8-4.1,6-5.9,1.3-.6,1.8.7.6,1.2-3.9,1.6-5.4,5.1-5.4,5.3Z" fill="#fcd679" isolation="isolate" opacity=".5"/>
      <path d="M16.4,5.2c0,.3-.3.6-.7.6-.3,0-.6-.3-.6-.7,0-.3.3-.6.7-.6.4.2.6.4.6.7Z" fill="#fcd679" isolation="isolate" opacity=".5"/>
      <path d="M32.7,26.5c.6-1,1.7-.6,1.3.4-.1.2-1.5,4.3-5.6,6.4-1.3.7-1.8-.6-.6-1.2,3.6-1.9,4.9-5.6,4.9-5.6Z" fill="#f5ce62"/>
      <path d="M26.6,33.8c0,.3-.2.6-.6.6-.3,0-.6-.2-.6-.6s.2-.6.6-.6c.4-.1.6.2.6.6Z" fill="#f5ce62"/>
      <path d="M24,34.5c0,.2-.1.3-.3.3s-.3-.1-.3-.3.1-.3.3-.3c.1,0,.3.2.3.3Z" fill="#f5ce62"/>
      <path d="M34.7,24.3c0,.2-.1.3-.3.3s-.3-.1-.3-.3.1-.3.3-.3.3.1.3.3Z" fill="#f5ce62"/>
      <path d="M22.5,20.2l3.5,4.9-4.1.2-1.3-2-1.3,2h-4.5l3.6-5.1-3.5-5,3.8-.4,1.7,2.5,1.7-2.3,4,.1-3.6,5.1Z" fill="#fff"/>
    </g>
  </g>
</svg>