<?xml version="1.0" encoding="UTF-8"?>
<svg xmlns="http://www.w3.org/2000/svg" version="1.1" xmlns:xlink="http://www.w3.org/1999/xlink" viewBox="0 0 390 750">
  <defs>
    <clipPath id="clippath">
      <rect width="390" height="750" fill="none"/>
    </clipPath>
  </defs>
  <!-- Generator: Adobe Illustrator 28.6.0, SVG Export Plug-In . SVG Version: 1.2.0 Build 709)  -->
  <g>
    <g id="Layer_1">
      <g clip-path="url(#clippath)">
        <rect width="390" height="750" fill="#c8e9f1"/>
        <g>
          <g>
            <path d="M52.69,61.26c.35.17.72.24,1.11.24.22.01.44.01.65,0,.16,0,.33,0,.51-.03-.2.07-.4.12-.61.15.01.05.03.1.05.15.11.26.29.49.48.7.41.46.95.81,1.51,1.03.56.21,1.24.28,1.82.16.13-.03.26-.07.38-.12-.11-.25-.18-.51-.19-.79,0,0,0-.01,0-.02.03.31.23.62.4.86.12.17.26.33.41.47.28.29.61.53.95.74.88.52,1.91.8,2.92.84.9.03,1.82-.15,2.61-.62.33-.19.66-.48.93-.81.13-.13.24-.28.33-.46.17-.35.2-.71.24-1.08.06.44-.03.89-.23,1.29,1.17.54,2.55.59,3.76.13.7-.26,1.25-.69,1.47-1.43.06-.18.08-.38.07-.56.05-.27.02-.54-.13-.79-.2-.32-.48-.46-.8-.6.3-.03.58.21.78.42.07.08.13.16.18.25.13-.1.25-.22.35-.34.27-.22.46-.52.6-.84.1-.22.17-.44.22-.68.02-.06.03-.13.04-.2,0,.4-.05.81-.18,1.2.54.05,1.08.04,1.6-.1.82-.21,1.44-.92,1.34-1.78-.11-1-1.06-1.75-2.02-1.76-.5-.01-.99.05-1.46.19-.07.03-.15.05-.22.08.15.14.29.29.4.46.04.07.07.14.11.22-.22-.33-.52-.57-.85-.76-.63-.49-1.49-.72-2.26-.67-.52.03-1.05.22-1.51.46.04.22.04.44,0,.65,0-.38-.11-.75-.34-1.04-.04-.08-.08-.15-.13-.22-.41-.64-1.04-1.17-1.75-1.46-.79-.32-1.64-.27-2.41.05-.15.06-.29.12-.42.19h0s-.05.03-.07.04h-.01s-.07.04-.1.05c-.14.08-.28.15-.41.24.1-.14.25-.26.39-.37.02,0,.04-.02.06-.04-.08-.13-.17-.25-.25-.37-.38-.49-.91-.81-1.51-.92-.31-.06-.61-.07-.92-.03-.3.05-.53.19-.78.36-.41.26-.63.68-.74,1.14-.02.05-.04.11-.05.17-.06.15-.1.31-.12.46-.01-.01-.03-.03-.03-.05,0-.08,0-.15,0-.23-.15-.07-.3-.12-.44-.17-.65-.19-1.36-.11-1.99.13-.58.21-1.16.61-1.43,1.18-.12.24-.19.5-.21.75.32.08.68.23.88.48-.42-.3-.94-.44-1.44-.36-.36.01-.72.08-1.05.18-.8.24-1.56.63-1.75,1.52-.2.91.53,1.68,1.28,2.04Z" fill="#fff" opacity=".4"/>
            <g>
              <path d="M119.21,91.43c-.78-2.56-3.27-3.48-5.69-3.74-1.3-.14-2.69.03-3.94.39-.08-.53-.23-1.05-.43-1.55-.71-1.76-2.38-2.8-4.12-3.35-1.75-.55-3.59-.55-5.34.03-.69.23-1.35.59-1.94,1.04-.28-1.39-.87-2.69-2.14-3.49-1.62-1.03-3.33-1.13-5.12-.52-1.67.57-2.93,1.64-3.83,3.16-.22.38-.44.81-.62,1.25-.84-.4-1.79-.64-2.68-.81-2.25-.41-4.41.3-6.22,1.63-1.61,1.18-2.92,2.95-3.51,4.87-.08.28-.14.56-.17.84-.15-.06-.29-.11-.44-.17-1.4-.46-2.84-.72-4.31-.58-2.03.19-4.05,1.19-5.48,2.7-1.25-.52-2.7-.6-4.03-.51-1.55.11-2.86.55-4.02,1.6-.99.88-1.64,2.07-1.93,3.35-.57,2.5.9,4.82,3.27,5.66,1.86.66,3.91.33,5.76-.31.01.02.02.03.03.05.56,1.05,1.43,1.85,2.44,2.4-.05.35-.07.69-.07,1.04.01,2.15,1.42,4.09,3.35,4.95,2.22.98,4.7,1.07,7.07.72,1.8-.28,3.62-.98,5-2.19.65.84,1.46,1.56,2.29,2.1,2.28,1.49,5.23,1.66,7.86,1.31,2.85-.39,5.67-1.64,7.86-3.51,1.21-1.03,2.31-2.31,2.89-3.78.16.06.32.12.48.18,1.75.61,3.75.25,5.42-.44,1.71-.7,3.22-2.13,4.25-3.64.5-.73.88-1.5,1.15-2.34.08-.25.12-.51.13-.77,1.33-.09,2.64-.47,3.74-1.17,2.16-1.39,3.84-3.73,3.04-6.39Z" fill="#a1b8b8"/>
              <path d="M115.74,97.54c-.83.55-1.79.86-2.8.99-.56.1-1.12.17-1.7.23-.4.04-.86.1-1.31.09.53.11,1.09.17,1.64.18-.01.13-.04.27-.08.4-.19.72-.6,1.38-1.02,1.99-.9,1.32-2.17,2.42-3.58,3.17-1.37.74-3.11,1.11-4.66,1-.34-.03-.68-.08-1.02-.18.2-.68.29-1.38.23-2.11,0-.02,0-.03,0-.05.02.82-.4,1.68-.77,2.38-.25.49-.55.95-.9,1.38-.62.83-1.39,1.57-2.21,2.21-2.09,1.64-4.69,2.71-7.3,3.14-2.33.38-4.8.21-6.96-.73-.93-.4-1.88-1.03-2.67-1.81-.39-.3-.74-.65-1.03-1.07-.57-.83-.76-1.78-.97-2.73-.02,1.17.39,2.29,1.04,3.28-2.85,1.78-6.42,2.36-9.7,1.58-1.89-.45-3.46-1.39-4.29-3.23-.2-.45-.33-.93-.38-1.42-.22-.68-.24-1.41.07-2.11.4-.89,1.11-1.36,1.88-1.81-.8.02-1.45.72-1.88,1.34-.15.22-.27.46-.37.7-.38-.22-.72-.47-1.04-.76-.77-.47-1.35-1.2-1.81-1.96-.33-.54-.58-1.1-.81-1.69-.06-.16-.12-.33-.17-.5.11,1.06.41,2.09.86,3.05-1.38.3-2.8.46-4.19.29-2.17-.28-4.03-1.92-4.07-4.19-.05-2.6,2.16-4.87,4.65-5.23,1.28-.19,2.57-.19,3.85.03.2.03.4.08.6.14-.35.41-.65.85-.89,1.32-.07.2-.14.4-.19.6.45-.91,1.13-1.67,1.95-2.27,1.48-1.48,3.62-2.36,5.64-2.5,1.35-.1,2.79.23,4.06.68-.04.6.04,1.16.21,1.7-.12-.96.05-1.97.53-2.8.08-.21.16-.41.26-.6.87-1.81,2.32-3.36,4.06-4.35,1.92-1.1,4.15-1.24,6.25-.67.4.1.78.22,1.15.36,0,0,0,0-.01.01.07.02.13.04.19.07h0s.02,0,.03,0c.09.03.18.07.28.1.38.15.77.31,1.14.5-.32-.34-.73-.6-1.14-.82-.06-.03-.12-.06-.18-.09.17-.36.35-.71.54-1.05.81-1.41,2.09-2.4,3.62-2.88.77-.24,1.56-.4,2.37-.38.78.02,1.43.34,2.12.66,1.15.55,1.86,1.57,2.3,2.71.08.14.14.28.2.43.2.37.34.76.46,1.17.04-.04.07-.09.07-.14-.02-.2-.05-.4-.07-.59.37-.23.75-.42,1.1-.57,1.64-.72,3.49-.73,5.21-.34,1.59.36,3.21,1.21,4.12,2.6.38.59.65,1.23.79,1.88-.79.29-1.71.8-2.13,1.51,1-.9,2.29-1.44,3.62-1.42.93-.09,1.9-.04,2.79.11,2.15.35,4.24,1.13,5.05,3.34.83,2.3-.81,4.53-2.64,5.73Z" fill="#fff"/>
              <path d="M104.85,95.03c1.1,1.34,1.22,3.35,3.27,3.82-.9,1.67-3.48,2.44-4.95,1.53-1.26-.68-1.75-1.87-2.55-2.89.3,3.22-1.07,6.82-3.99,7.94-5.3,2.35-12.11,2.99-16.78-.54-1.01-.89-1.13-2.38-.97-3.89-.95,1.52-1.41,3.3-.98,5.03-1.79.31-3.37.82-5.2.73-2.23-.26-5.52-1.26-5.1-4.11.29-1.11.96-1.95,1.79-2.59-1.91.34-3.97.93-4.82,2.58-2-1.4-3.33-3.57-3.27-6.21-1.02,1.28-1.68,3.02-1.07,4.67-2.81.78-5.88-.67-6.43-3.11-.03.2-.04.39-.03.59.04,2.27,1.9,3.91,4.07,4.19,1.4.18,2.82.02,4.19-.29-.45-.96-.75-1.99-.86-3.05.05.17.1.34.17.5.22.59.48,1.15.81,1.69.47.76,1.05,1.49,1.81,1.96.32.29.67.54,1.04.76.1-.24.21-.48.37-.7.43-.62,1.07-1.32,1.88-1.34-.78.44-1.48.92-1.88,1.81-.32.7-.29,1.43-.07,2.11.05.49.17.97.38,1.42.82,1.83,2.39,2.78,4.29,3.23,3.29.78,6.85.2,9.7-1.58-.65-1-1.06-2.12-1.04-3.28.21.95.41,1.9.97,2.73.29.41.64.77,1.03,1.07.79.78,1.74,1.41,2.67,1.81,2.17.93,4.63,1.11,6.96.73,2.61-.43,5.2-1.5,7.3-3.14.81-.64,1.59-1.37,2.21-2.21.35-.43.64-.89.9-1.38.36-.69.79-1.55.77-2.38,0,.02,0,.03,0,.05.06.74-.03,1.43-.23,2.11.33.09.68.15,1.02.18,1.55.12,3.29-.26,4.66-1,1.4-.75,2.67-1.85,3.58-3.17.42-.61.82-1.27,1.02-1.99.04-.13.06-.27.08-.4-.55-.01-1.1-.08-1.64-.18.45,0,.91-.05,1.31-.09.58-.06,1.14-.13,1.7-.23,1.01-.13,1.97-.44,2.8-.99,1.42-.94,2.73-2.49,2.85-4.22-2.89,4.3-9.77,5.58-13.74,1.72Z" fill="#bce3e2" opacity=".4"/>
            </g>
          </g>
          <g>
            <path d="M413.33,193.79c-.67,1.38-2.06,2.44-3.31,3.26-2.88,1.92-6.5,2.3-9.84,1.84-1.87-.26-3.56-.71-5.27-1.51-.58-.27-1.14-.6-1.67-.95.15-.17.29-.34.42-.51-.18.15-.37.29-.55.43-.71.5-1.42,1.01-2.15,1.46-.08.06-.17.11-.26.17-.53.37-1.09.7-1.68,1-.89.44-1.87.73-2.84.97-1.03.26-2.08.47-3.13.51-.9.04-1.78-.05-2.64-.24-1.24-.18-2.45-.54-3.52-1.18-.65-.39-1.28-.85-1.76-1.45-.32-.4-.57-.94-.97-1.28.1.24.22.47.35.69.23.4.5.76.81,1.1-.77.58-1.73.99-2.6,1.38-1.95.87-4.12,1.41-6.28,1.24-2.23-.18-4.4-.86-6.32-2.01-.63-.39-1.18-.84-1.66-1.36,0,0,0,0,0,0-.56-.55-1.04-1.18-1.42-1.87.24.61.53,1.18.89,1.71-.77.38-1.6.67-2.37.92-1.41.44-2.98.57-4.43.24-2.8-.64-4.67-3.12-4.84-5.95-.16-2.65,1.49-5.47,3.88-6.57,1.39-.64,2.98-.75,4.48-.49.21.04.42.09.62.15-.04.29-.06.59-.07.89.03.32.04.64.11.95.11.42.26.82.44,1.22-.17-1.17-.06-2.3.31-3.44.06-.2.14-.39.23-.57.1-.28.22-.56.36-.84.98-2.01,2.9-3.08,4.76-4.13,1.98-1.11,4.27-1.48,6.5-1.06.41.08.79.19,1.17.32-.18.92-.03,1.9.55,2.78-.36-1.21-.31-2.58.32-3.62.31-.66.78-1.26,1.37-1.81.13-.13.28-.24.44-.34.01.01.01.03.02.04,0,0,.02-.01.02-.01.11-.07.22-.12.33-.18,0,0-.01-.02-.01-.03.65-.31,1.42-.48,2.06-.61.5-.1,1.01-.17,1.52-.12.11,0,.23.03.34.05h.1c-.37-.13-.74-.19-1.13-.19-.57,0-1.13.05-1.68.13-.49.09-.97.21-1.41.39-.48-.88-.72-1.82-.77-2.83-.06-1.21.04-2.47.57-3.58.49-1.05,1.25-2.06,2.12-2.84,1.8-1.61,4.05-2.38,6.46-2.11,1.95.22,4.17,1.34,5.06,3.17-.62.2-1.22.47-1.77.78-.37.26-.71.54-1.01.88,1.32-1.1,3.17-1.66,4.92-1.54,1.84-.07,3.63.42,5.16,1.53,1.68,1.23,3.3,2.89,3.98,4.88.21.6.34,1.2.4,1.81.14.64.14,1.33.13,1.97,0,.17,0,.33-.01.5.08-.52.13-1.05.13-1.59.05,0,.1-.01.15-.02,1.07-.13,2.13-.1,3.19.08,2.02.36,4.05,1.36,5.41,2.92.67.77,1.09,1.69,1.49,2.62.45,1.09.4,2.35.09,3.48-.03.14-.08.28-.13.42-.01,0-.02,0-.03,0-.53.06-1.06.2-1.58.35-.23.06-.41.13-.54.31.01,0,.03,0,.04-.01.01,0,.03,0,.05-.02.4-.3,1.05-.31,1.51-.33.34-.01.68-.04,1.01-.01t0,0c.67.02,1.34.16,1.97.36,1.53.48,2.82,1.61,3.46,3.08.59,1.35.53,2.92-.1,4.25Z" fill="#fff" opacity=".5"/>
            <path d="M300.17,307.45c-.66,1.38-2.06,2.43-3.3,3.26-2.88,1.92-6.5,2.3-9.85,1.83-1.87-.25-3.55-.71-5.27-1.51-.58-.28-1.13-.6-1.67-.95.15-.17.29-.34.43-.52-.18.15-.37.3-.55.42-.7.51-1.42,1.01-2.15,1.46-.08.06-.17.11-.26.17-.53.37-1.09.71-1.67,1-.9.44-1.88.73-2.84.97-1.03.26-2.08.47-3.14.52-.9.04-1.78-.05-2.64-.25-1.24-.18-2.45-.54-3.52-1.18-.65-.39-1.29-.85-1.77-1.45-.31-.4-.56-.94-.97-1.28.1.24.22.47.35.7.23.4.5.75.81,1.09-.77.58-1.73.99-2.6,1.38-1.95.88-4.12,1.41-6.28,1.24-2.23-.18-4.4-.86-6.32-2.01-.64-.39-1.18-.84-1.65-1.36h0c-.56-.56-1.05-1.19-1.42-1.88.24.61.53,1.18.88,1.71-.77.39-1.6.68-2.37.92-1.42.45-2.98.57-4.42.24-2.81-.65-4.68-3.12-4.84-5.95-.16-2.65,1.48-5.46,3.88-6.56,1.39-.64,2.98-.75,4.48-.49.22.04.42.09.62.15-.04.29-.06.59-.07.89.03.32.03.64.11.94.11.42.26.82.44,1.22-.17-1.17-.06-2.3.31-3.44.06-.2.14-.39.23-.57.1-.28.22-.56.36-.83.98-2.01,2.89-3.08,4.76-4.13,1.98-1.11,4.27-1.48,6.51-1.05.41.08.79.18,1.17.32-.18.93-.03,1.9.55,2.78-.36-1.21-.31-2.58.32-3.62.31-.66.78-1.26,1.37-1.81.13-.13.28-.24.45-.34,0,.01.01.02.02.03,0,0,.01-.01.02-.01.11-.07.22-.12.34-.18,0,0-.01-.02-.02-.03.65-.31,1.42-.47,2.06-.61.51-.11,1.01-.17,1.52-.13.12,0,.23.03.34.05h.1c-.37-.13-.74-.18-1.13-.19-.56,0-1.12.05-1.68.13-.49.09-.96.21-1.42.4-.47-.88-.71-1.82-.76-2.84-.06-1.21.04-2.47.57-3.58.5-1.05,1.25-2.06,2.12-2.83,1.8-1.62,4.05-2.38,6.46-2.11,1.96.22,4.17,1.34,5.06,3.17-.61.2-1.21.47-1.77.78-.37.26-.71.54-1,.88,1.31-1.1,3.17-1.66,4.92-1.55,1.84-.07,3.63.42,5.16,1.53,1.68,1.23,3.29,2.89,3.98,4.88.21.59.34,1.2.4,1.81.14.64.14,1.33.13,1.97,0,.16,0,.33-.01.5.08-.53.13-1.06.13-1.59.04,0,.09-.01.14-.02,1.07-.13,2.13-.1,3.19.08,2.02.36,4.05,1.36,5.41,2.92.67.77,1.09,1.69,1.48,2.62.46,1.09.4,2.35.09,3.48-.03.14-.08.28-.13.42h-.03c-.53.05-1.06.2-1.57.35-.23.06-.42.13-.54.31.01,0,.02,0,.04-.01.01,0,.03-.01.05-.02.4-.29,1.05-.31,1.51-.33.34-.01.67-.04,1.01-.02h0c.67.02,1.34.16,1.97.36,1.53.49,2.82,1.61,3.47,3.08.59,1.35.53,2.93-.11,4.25Z" fill="#fff" opacity=".5"/>
            <path d="M87.05,250.08c.56.32,1.18.47,1.83.51.37.04.74.07,1.1.08.26,0,.56.03.85,0-.34.09-.69.15-1.04.19.01.08.03.17.07.26.15.45.44.86.74,1.23.62.81,1.49,1.46,2.42,1.88.91.42,2.04.59,3.03.45.22-.03.43-.08.64-.15-.15-.43-.24-.88-.24-1.35,0-.01,0-.02,0-.03.03.53.33,1.06.59,1.49.18.29.39.59.63.84.43.51.96.95,1.5,1.33,1.41.96,3.12,1.55,4.81,1.71,1.51.14,3.08-.07,4.43-.76.58-.29,1.16-.73,1.63-1.27.24-.21.45-.45.62-.72.33-.56.41-1.17.51-1.79.06.74-.15,1.48-.53,2.14,1.9,1.02,4.22,1.25,6.28.63,1.19-.37,2.16-1.04,2.62-2.25.11-.3.17-.61.18-.93.11-.45.1-.91-.14-1.35-.29-.55-.76-.82-1.28-1.08.52-.01.96.4,1.26.78.11.14.2.28.27.43.23-.15.44-.33.63-.53.47-.34.82-.83,1.08-1.34.19-.36.33-.72.44-1.11.04-.1.07-.21.09-.32-.03.68-.18,1.35-.43,1.98.89.14,1.81.19,2.7.02,1.38-.27,2.51-1.39,2.44-2.85-.08-1.67-1.59-3.03-3.2-3.16-.83-.07-1.65-.02-2.46.17-.13.03-.26.07-.38.12.24.24.45.52.63.81.05.12.11.25.15.38-.33-.57-.79-1.02-1.34-1.37-1-.89-2.42-1.36-3.71-1.37-.88,0-1.78.26-2.58.6.05.38.02.74-.07,1.1.04-.63-.11-1.27-.45-1.78-.06-.13-.13-.26-.19-.38-.63-1.13-1.62-2.06-2.78-2.63-1.28-.62-2.7-.62-4.03-.17-.25.09-.49.18-.72.28,0,0,0,0,0,.01-.04.01-.08.03-.12.05h0s-.01,0-.02,0c-.06.02-.12.05-.17.08-.24.12-.48.22-.71.36.18-.23.44-.41.69-.57.04-.02.07-.04.11-.07-.12-.22-.25-.44-.39-.64-.57-.87-1.43-1.45-2.44-1.7-.5-.13-1.02-.2-1.53-.15-.5.04-.9.27-1.33.51-.72.39-1.13,1.08-1.36,1.83-.04.09-.07.19-.1.29-.11.24-.19.5-.25.76-.03-.02-.05-.05-.04-.08,0-.13.01-.26.01-.39-.24-.12-.5-.23-.72-.32-1.08-.39-2.27-.32-3.35,0-1,.3-2,.91-2.53,1.83-.23.4-.38.81-.44,1.24.53.16,1.13.45,1.43.89-.67-.54-1.52-.83-2.38-.77-.6-.01-1.21.07-1.78.19-1.36.31-2.68.89-3.1,2.35-.43,1.5.7,2.87,1.93,3.57Z" fill="#fff" opacity=".4"/>
            <g>
              <path d="M350.34,87.35c-1.03-4.37-5.11-6.17-9.13-6.88-2.16-.37-4.51-.24-6.64.24-.08-.9-.28-1.79-.56-2.64-.99-3.03-3.68-4.95-6.53-6.05-2.87-1.1-5.96-1.31-8.93-.53-1.18.31-2.33.85-3.36,1.54-.31-2.36-1.17-4.61-3.2-6.08-2.61-1.9-5.45-2.24-8.53-1.4-2.85.78-5.08,2.44-6.75,4.88-.42.63-.82,1.31-1.18,2.03-1.36-.75-2.92-1.26-4.4-1.63-3.73-.93-7.41.03-10.59,2.06-2.82,1.8-5.22,4.64-6.39,7.79-.17.46-.29.92-.38,1.38-.24-.11-.47-.22-.72-.32-2.3-.93-4.68-1.52-7.16-1.44-3.43.11-6.91,1.56-9.47,3.92-2.04-1.01-4.45-1.28-6.68-1.28-2.6,0-4.85.62-6.91,2.24-1.75,1.36-2.97,3.3-3.59,5.41-1.21,4.12,1,8.17,4.87,9.83,3.05,1.3,6.51.97,9.67.08.01.04.03.06.05.1.83,1.81,2.19,3.26,3.83,4.27-.13.57-.2,1.15-.23,1.73-.2,3.6,1.95,7,5.09,8.64,3.61,1.88,7.76,2.31,11.75,1.96,3.06-.27,6.17-1.26,8.6-3.14,1,1.47,2.28,2.77,3.62,3.76,3.66,2.74,8.59,3.34,13.03,3.02,4.82-.34,9.67-2.13,13.54-5.03,2.13-1.59,4.1-3.63,5.25-6.03.25.13.51.25.78.37,2.88,1.2,6.24.82,9.12-.16,2.95-.99,5.62-3.21,7.5-5.64.91-1.17,1.63-2.42,2.17-3.8.17-.42.26-.84.29-1.27,2.24-.01,4.48-.51,6.39-1.57,3.77-2.1,6.83-5.84,5.76-10.37Z" fill="#a1b8b8"/>
              <path d="M343.88,97.19c-1.45.83-3.1,1.23-4.8,1.35-.95.12-1.91.17-2.87.2-.67.02-1.45.06-2.21.02.89.24,1.8.4,2.73.48-.04.23-.1.45-.17.68-.41,1.18-1.15,2.24-1.92,3.22-1.64,2.11-3.89,3.81-6.32,4.92-2.37,1.09-5.33,1.54-7.91,1.18-.57-.08-1.13-.22-1.68-.4.41-1.1.63-2.28.61-3.51,0-.03,0-.06,0-.08-.05,1.38-.86,2.77-1.54,3.9-.47.78-1.02,1.53-1.65,2.2-1.13,1.33-2.5,2.48-3.94,3.47-3.67,2.52-8.14,4.04-12.55,4.48-3.94.39-8.04-.17-11.58-1.96-1.51-.77-3.03-1.92-4.26-3.31-.63-.54-1.18-1.17-1.6-1.9-.87-1.46-1.08-3.06-1.35-4.68-.15,1.95.41,3.87,1.38,5.61-4.96,2.68-10.99,3.28-16.41,1.62-3.13-.96-5.65-2.71-6.84-5.86-.29-.77-.45-1.6-.49-2.42-.29-1.16-.25-2.37.36-3.52.77-1.45,1.99-2.17,3.34-2.83-1.34-.05-2.5,1.04-3.28,2.03-.28.36-.51.74-.7,1.14-.6-.41-1.15-.87-1.66-1.39-1.22-.87-2.13-2.14-2.82-3.48-.49-.93-.86-1.9-1.18-2.91-.08-.28-.17-.57-.22-.85.08,1.78.47,3.55,1.12,5.19-2.34.37-4.73.48-7.05.04-3.6-.69-6.55-3.64-6.37-7.44.2-4.37,4.14-7.92,8.34-8.27,2.18-.18,4.33-.04,6.45.45.34.08.67.18.99.29-.63.65-1.17,1.36-1.64,2.12-.14.33-.27.65-.39.99.86-1.48,2.08-2.67,3.5-3.58,2.63-2.32,6.33-3.56,9.71-3.58,2.28-.02,4.64.68,6.73,1.57-.13.98-.06,1.93.17,2.85-.11-1.63.29-3.28,1.18-4.63.15-.34.32-.67.49-.98,1.65-2.94,4.24-5.39,7.27-6.87,3.33-1.63,7.08-1.63,10.54-.45.65.22,1.28.46,1.88.73,0,0,0,.02,0,.03.1.04.21.08.31.12h0s.04.01.06.03c.15.06.3.13.45.2.61.29,1.25.58,1.86.95-.5-.61-1.16-1.07-1.82-1.5-.1-.06-.2-.12-.29-.18.32-.58.66-1.16,1.01-1.69,1.5-2.27,3.74-3.79,6.36-4.43,1.31-.33,2.66-.5,4.01-.38,1.31.11,2.36.71,3.49,1.33,1.86,1.04,2.95,2.82,3.55,4.79.11.23.21.48.28.75.29.63.49,1.31.63,2,.08-.05.14-.13.14-.23-.01-.33-.03-.67-.06-1,.64-.34,1.31-.62,1.91-.84,2.81-1.04,5.92-.85,8.75-.01,2.62.77,5.24,2.38,6.61,4.8.59,1.03.97,2.12,1.14,3.23-1.37.42-2.95,1.17-3.72,2.31,1.76-1.4,3.98-2.16,6.21-2,1.56-.05,3.19.15,4.66.49,3.56.81,6.99,2.34,8.09,6.13,1.14,3.93-1.83,7.49-5.03,9.32Z" fill="#fff"/>
              <path d="M325.92,91.84c1.69,2.37,1.69,5.75,5.07,6.76-1.69,2.7-6.07,3.71-8.44,2.03-2.03-1.27-2.73-3.31-3.96-5.11.16,5.42-2.52,11.31-7.52,12.87-9.12,3.38-20.6,3.72-28.03-2.69-1.59-1.6-1.65-4.12-1.21-6.62-1.75,2.43-2.7,5.37-2.16,8.31-3.04.33-5.74,1.01-8.78.67-3.72-.67-9.12-2.7-8.11-7.43.61-1.82,1.82-3.15,3.28-4.15-3.24.38-6.74,1.14-8.34,3.81-3.2-2.56-5.18-6.34-4.81-10.75-1.84,2.04-3.13,4.87-2.28,7.71-4.8,1.02-9.77-1.75-10.44-5.88-.06.32-.1.65-.11.98-.18,3.8,2.77,6.75,6.37,7.44,2.32.44,4.71.33,7.05-.04-.65-1.64-1.04-3.42-1.12-5.19.06.28.14.57.22.85.31,1.01.69,1.98,1.18,2.91.69,1.34,1.59,2.61,2.82,3.48.5.52,1.06.99,1.66,1.39.19-.4.42-.79.7-1.14.78-.99,1.94-2.08,3.28-2.03-1.35.66-2.58,1.38-3.34,2.83-.61,1.14-.64,2.35-.36,3.52.03.82.19,1.65.49,2.42,1.19,3.15,3.72,4.9,6.84,5.86,5.41,1.66,11.45,1.06,16.41-1.62-.97-1.73-1.53-3.66-1.38-5.61.26,1.62.48,3.23,1.35,4.68.43.72.97,1.36,1.6,1.9,1.24,1.39,2.76,2.54,4.26,3.31,3.54,1.8,7.64,2.36,11.58,1.96,4.42-.43,8.88-1.95,12.55-4.48,1.44-.99,2.8-2.14,3.94-3.47.63-.67,1.17-1.42,1.65-2.2.68-1.13,1.49-2.52,1.54-3.9,0,.03,0,.05,0,.08.02,1.23-.21,2.41-.61,3.51.54.19,1.11.33,1.68.4,2.59.36,5.54-.09,7.91-1.18,2.43-1.11,4.68-2.81,6.32-4.92.77-.97,1.5-2.04,1.92-3.22.07-.23.13-.45.17-.68-.93-.08-1.84-.24-2.73-.48.76.05,1.54,0,2.21-.02.96-.03,1.92-.08,2.87-.2,1.7-.12,3.34-.53,4.8-1.35,2.48-1.42,4.83-3.89,5.22-6.75-5.3,6.89-16.95,8.29-23.18,1.4Z" fill="#bce3e2" opacity=".4"/>
            </g>
            <g>
              <path d="M90.18,209.45c-1.21-.29-2.46-.39-3.71-.35.04-.11.08-.21.12-.32.65-1.93.9-4.41.24-6.36-.67-2-1.68-3.97-3.05-5.58-2.59-3.02-6.49-4.7-10.37-5.23-2.05-.28-4.08-.13-6.11.21-.01-1.55-.22-3.1-.6-4.61-1-3.99-4.16-7.47-7.46-9.79-3.48-2.45-7.77-2.81-11.83-1.92-.42.09-.85.21-1.27.35-1.46-3.31-5.21-5.24-8.65-5.94-2.28-.47-4.79-.31-7.01.33-2.15.61-3.94,1.77-5.64,3.21-1.65,1.39-2.94,3.34-3.92,5.25-1.06,2.1-1.24,4.58-1.17,6.9.07,1.91.71,3.59,1.68,5.16-.48.25-.93.56-1.36.92-1.36,1.18-2.38,2.73-2.84,4.39-.53-.23-1.07-.43-1.64-.6-2.12-.62-4.26-.78-6.46-.66-2.12.12-4.19.93-6.07,1.88-3.83,1.93-7.48,4.17-9.45,8.15-.5,1.02-.86,2.18-1.06,3.39-.36-.1-.71-.18-1.08-.25-2.77-.56-5.54-.33-8.17.72-4.68,1.86-7.74,7.12-8,12.03-.31,5.68,3.82,10.68,9.16,12.07,2.71.71,5.77.38,8.39-.54,1.67-.58,3.34-1.3,4.82-2.28.78,1.05,1.7,2.01,2.78,2.88,3.36,2.7,7.7,3.91,11.93,4.25,2.05.17,3.94-.04,5.9-.58.98-.27,1.96-.41,2.93-.74,1.02-.35,2-.8,2.96-1.27,1.56-.76,3.24-1.72,4.54-2.93.5.49,1.04.94,1.59,1.36,3.04,2.29,6.73,3.58,10.53,3.65,3.95.07,7.84-.85,11.43-2.47,2.59-1.17,4.84-2.96,6.78-5.03,3.2,2.39,7.05,3.91,10.99,4.66,3.07.58,6.04.86,9.15.61,3.01-.24,5.89-.95,8.63-2.21,4.6-2.11,9.62-6.14,10.35-11.44.72-5.34-2.91-10.03-8.02-11.26Z" fill="#a1b8b8"/>
              <path d="M95.74,223.34c-1.18,2.45-3.67,4.33-5.88,5.8-5.12,3.41-11.54,4.08-17.51,3.26-3.32-.46-6.32-1.27-9.36-2.69-1.04-.49-2.02-1.06-2.96-1.69.25-.3.5-.6.75-.91-.32.28-.67.53-.98.75-1.24.91-2.52,1.8-3.82,2.61-.15.1-.31.2-.47.29-.94.66-1.93,1.26-2.97,1.77-1.6.78-3.34,1.3-5.06,1.73-1.82.46-3.69.84-5.57.91-1.6.07-3.16-.1-4.69-.44-2.2-.33-4.37-.96-6.26-2.1-1.16-.7-2.28-1.52-3.13-2.59-.56-.71-1-1.67-1.72-2.26.18.42.39.82.61,1.23.41.7.9,1.35,1.44,1.94-1.38,1.04-3.07,1.76-4.62,2.45-3.48,1.55-7.34,2.51-11.16,2.21-3.96-.32-7.82-1.53-11.23-3.59-1.13-.68-2.11-1.49-2.95-2.4,0,0,0,0,.01-.01-.99-.99-1.85-2.1-2.52-3.32.42,1.07.94,2.09,1.57,3.04-1.37.68-2.85,1.19-4.22,1.63-2.51.79-5.29,1.02-7.87.43-4.98-1.15-8.31-5.55-8.61-10.59-.29-4.7,2.64-9.71,6.9-11.67,2.49-1.13,5.31-1.33,7.97-.86.38.07.75.15,1.1.26-.07.52-.11,1.05-.12,1.59.04.56.07,1.13.21,1.67.19.75.46,1.46.76,2.17-.29-2.08-.09-4.09.55-6.12.11-.35.25-.69.41-1.02.18-.5.39-.99.63-1.48,1.77-3.57,5.16-5.48,8.48-7.35,3.52-1.98,7.6-2.63,11.56-1.87.72.13,1.4.33,2.07.57-.31,1.65-.06,3.38.97,4.94-.64-2.14-.55-4.58.57-6.44.56-1.17,1.39-2.24,2.43-3.22.24-.22.51-.42.79-.6.01.02.03.04.04.06.01,0,.03-.02.04-.03.19-.11.4-.22.6-.32-.01-.02-.03-.04-.04-.05,1.16-.55,2.52-.85,3.67-1.08.89-.19,1.78-.31,2.7-.22.21.01.41.05.6.09.06,0,.12,0,.18,0-.64-.23-1.3-.34-2-.34-1,0-1.99.09-2.98.22-.87.16-1.71.37-2.52.7-.84-1.56-1.27-3.24-1.35-5.04-.1-2.15.08-4.39,1.02-6.36.89-1.86,2.21-3.67,3.76-5.05,3.21-2.87,7.19-4.22,11.5-3.74,3.48.39,7.42,2.38,9,5.64-1.1.35-2.16.83-3.15,1.4-.65.46-1.27.96-1.79,1.56,2.33-1.96,5.64-2.95,8.75-2.76,3.28-.12,6.47.74,9.17,2.72,2.99,2.18,5.86,5.14,7.09,8.68.38,1.06.6,2.13.71,3.23.26,1.13.25,2.36.24,3.49,0,.29-.01.59-.03.88.15-.93.24-1.88.25-2.83.08,0,.17-.02.25-.03,1.91-.22,3.79-.18,5.68.15,3.6.63,7.21,2.42,9.63,5.2,1.2,1.36,1.95,3,2.64,4.65.81,1.94.71,4.19.17,6.2-.07.25-.14.5-.23.75-.01,0-.03,0-.05,0-.96.1-1.89.36-2.81.62-.4.11-.73.23-.96.54.02,0,.04,0,.07-.01.03-.01.06-.03.1-.04.72-.53,1.86-.55,2.68-.59.6-.03,1.2-.07,1.8-.03,0,0,0,0,0,0,1.18.04,2.38.28,3.51.64,2.72.86,5.02,2.86,6.16,5.48,1.06,2.4.95,5.2-.18,7.55Z" fill="#fff"/>
              <path d="M36.87,184.24c-.04.67.06,1.22.26,1.72-.05-2.12,1.27-4.61,2.62-6.05.58-.62,1.21-1.16,1.9-1.63.39-.37.82-.7,1.27-1.02.99-.57,2.05-1.05,3.15-1.4-.36-.74-.85-1.41-1.41-2.01-3.6.58-7.49,5.19-7.78,10.38Z" fill="#bce3e2" opacity=".3"/>
              <path d="M22.14,190.42c.81-.33,1.65-.54,2.52-.7.99-.13,1.98-.23,2.98-.22.57,0,1.1.08,1.63.22,1.82.15,3.62.67,5.29,1.32,1.91.74,3.72,1.7,5.32,2.97-3.43-5.22-10.77-8.25-16.54-5.74-.17.07-.42.06-.51-.14-1.17-2.66-1.56-5.8-1.15-8.81-.81,1.89-.99,4.01-.89,6.05.09,1.8.52,3.48,1.35,5.04Z" fill="#bce3e2" opacity=".3"/>
              <path d="M95.92,215.79c-1.14-2.62-3.44-4.62-6.16-5.48-1.13-.35-2.32-.6-3.51-.64,0,0,0,0,0,0-.6-.04-1.2,0-1.8.03-.82.04-1.96.06-2.68.59-.04.01-.07.03-.1.04-.03,0-.05,0-.07.01.23-.32.56-.43.96-.54.92-.26,1.85-.53,2.81-.62.02,0,.04,0,.05,0,.09-.25.16-.5.23-.75.54-2.01.64-4.26-.17-6.2-.69-1.65-1.44-3.29-2.64-4.65-2.04-2.34-4.92-3.97-7.92-4.81,3.31,2.1,6.01,4.91,6.13,9.23.08,3.01-.55,6.76-2.23,9.67.6-.1,1.21-.19,1.83-.26,2.59-.31,5.36-.72,7.88.22,1.99.75,2.77,2.68,2.16,4.69-.9,2.99-3.13,5.25-5.93,6.56-5.55,2.6-12.13,2.29-17.86.42-3.86-1.26-7.7-3.33-10.25-6.45-2.76,5.69-8,9.81-14.89,9.95-7.84.17-16.67-4.72-19.22-12.38.07,2.51.8,5.07,1.83,7.08.1.19.04.4-.13.52-5.61,3.56-17.14,7.34-23.87,4.53-3.67-1.53-5.38-4.77-6.9-8.74-.31,2.76.33,5.79,1.38,8.74.09.25-.85.4-1.07.43-4.72.56-10.43.06-13.92-3.59-1.84-1.93-2.66-4.27-2.8-6.71-.42,1.35-.62,2.74-.53,4.12.3,5.04,3.62,9.44,8.61,10.59,2.59.59,5.36.36,7.87-.43,1.38-.43,2.85-.94,4.22-1.63-.64-.95-1.15-1.97-1.57-3.04.67,1.22,1.53,2.34,2.52,3.32,0,0,0,0-.01.01.84.91,1.82,1.72,2.95,2.4,3.41,2.06,7.27,3.27,11.23,3.59,3.81.3,7.68-.66,11.16-2.21,1.55-.69,3.24-1.41,4.62-2.45-.54-.6-1.03-1.24-1.44-1.94-.23-.41-.43-.81-.61-1.23.73.58,1.16,1.55,1.72,2.26.85,1.07,1.98,1.89,3.13,2.59,1.89,1.14,4.06,1.77,6.26,2.1,1.53.34,3.09.51,4.69.44,1.88-.08,3.75-.46,5.57-.91,1.73-.43,3.46-.95,5.06-1.73,1.04-.51,2.03-1.11,2.97-1.77.16-.1.31-.19.47-.29,1.3-.81,2.58-1.7,3.82-2.61.31-.23.66-.48.98-.75-.25.31-.49.61-.75.91.94.63,1.92,1.2,2.96,1.69,3.04,1.42,6.04,2.23,9.36,2.69,5.97.82,12.39.15,17.51-3.26,2.21-1.48,4.7-3.35,5.88-5.8,1.13-2.35,1.24-5.15.18-7.55Z" fill="#bce3e2" opacity=".5"/>
              <path d="M21.86,191.38s-.05.04-.08.06c.03-.01.07-.03.1-.03,0-.01-.01-.01-.02-.03Z" fill="#fff"/>
            </g>
          </g>
        </g>
      </g>
    </g>
  </g>
</svg>