<?xml version="1.0" encoding="utf-8"?>
<!-- Generator: Adobe Illustrator 28.3.0, SVG Export Plug-In . SVG Version: 6.00 Build 0)  -->
<svg version="1.1" id="Layer_1" xmlns="http://www.w3.org/2000/svg" xmlns:xlink="http://www.w3.org/1999/xlink" x="0px" y="0px"
	 viewBox="0 0 19 20" style="enable-background:new 0 0 19 20;" xml:space="preserve">
<style type="text/css">
	.st0{fill:#932F1F;}
	.st1{fill:url(#SVGID_1_);}
	.st2{opacity:0.3;}
	.st3{fill:#F2F0F2;}
	.st4{fill:url(#SVGID_00000089557681148879297950000014626097518059606411_);}
	.st5{fill:url(#SVGID_00000109741577264781584480000010489680830970494092_);}
	.st6{opacity:0.2;}
	.st7{fill:url(#SVGID_00000098937887509572274630000007412265405933618608_);}
	.st8{fill:url(#SVGID_00000098912833227188168080000015662908812925488784_);}
	.st9{fill:url(#SVGID_00000176725340340119681540000005357984658918528390_);}
</style>
<path class="st0" d="M18.5,8.6c0.9,4.9-2.4,9.5-7.2,10.3c-0.7,0.1-1.3,0.2-2,0.1c-0.9,0-1.6-0.2-2.4-0.4c-0.7-0.2-1.3-0.5-1.9-0.9
	c-0.2-0.1-0.4-0.2-0.6-0.4c-0.8-0.6-1.4-1.2-2-2c-0.1-0.2-0.2-0.3-0.3-0.5c-0.6-1-1-2.1-1.2-3.2c0-0.1,0-0.2-0.1-0.3
	C0.1,6.6,3.3,2.2,8,1.3c1.1-0.2,2.3-0.2,3.4,0.1c0.2,0,0.4,0.1,0.7,0.2c0.9,0.3,1.7,0.7,2.5,1.1C14.8,2.9,14.9,3,15,3.2
	c0.6,0.5,1,1,1.5,1.5c0.5,0.6,0.9,1.2,1.1,2c0.2,0.5,0.4,1.1,0.5,1.6C18.5,8.4,18.5,8.5,18.5,8.6z"/>
<linearGradient id="SVGID_1_" gradientUnits="userSpaceOnUse" x1="9.6315" y1="11.3783" x2="9.6315" y2="-12.4927" gradientTransform="matrix(1 0 0 -1 0 21.1024)">
	<stop  offset="0" style="stop-color:#FFD640"/>
	<stop  offset="1" style="stop-color:#F99F1B"/>
</linearGradient>
<path class="st1" d="M18.5,7.5c0.9,4.9-2.4,9.5-7.2,10.3c-0.7,0.1-1.3,0.2-2,0.1c-0.9,0-1.6-0.2-2.4-0.4c-0.7-0.2-1.3-0.5-1.9-0.9
	c-0.2-0.1-0.4-0.2-0.6-0.4c-0.8-0.6-1.4-1.2-2-2c-0.1-0.2-0.2-0.3-0.3-0.5c-0.6-1-1-2.1-1.2-3.2c0-0.1,0-0.2-0.1-0.3
	C0.1,5.5,3.3,1.1,8,0.2C9.1,0,10.3,0,11.4,0.3c0.2,0,0.4,0.1,0.7,0.2c0.9,0.3,1.7,0.7,2.5,1.1C14.8,1.7,14.9,1.8,15,2
	c0.6,0.5,1,1,1.5,1.5c0.5,0.6,0.9,1.2,1.1,2c0.2,0.5,0.4,1.1,0.5,1.6C18.5,7.3,18.5,7.4,18.5,7.5z"/>
<g class="st2">
	<path class="st3" d="M17.9,5.6L9.3,18c-0.9,0-1.6-0.2-2.4-0.4l9.8-14C17.2,4.1,17.6,4.8,17.9,5.6z"/>
</g>
<g class="st2">
	<path class="st3" d="M12.2,0.5L2.5,14.3c-0.1-0.2-0.2-0.3-0.3-0.5l9.3-13.6C11.8,0.4,12,0.4,12.2,0.5z"/>
</g>
<g class="st2">
	<path class="st3" d="M15.2,2L5,16.7c-0.2-0.1-0.4-0.2-0.6-0.4L14.7,1.6C14.9,1.8,15,1.9,15.2,2z"/>
</g>
<linearGradient id="SVGID_00000002373770640285649240000004482042524037356454_" gradientUnits="userSpaceOnUse" x1="2.5749" y1="12.0577" x2="16.8539" y2="12.0577" gradientTransform="matrix(1 0 0 -1 0 21.1024)">
	<stop  offset="0" style="stop-color:#F99F1B"/>
	<stop  offset="1" style="stop-color:#DA7127"/>
</linearGradient>
<path style="fill:url(#SVGID_00000002373770640285649240000004482042524037356454_);" d="M16.8,7.8c0,0.1,0,0.2,0.1,0.3
	c0.5,3.7-2.1,7.3-5.8,7.9c-3.7,0.7-7.3-1.7-8.2-5.4c0-0.1,0-0.2-0.1-0.3C2.1,6.4,4.6,2.8,8.6,2C12.4,1.3,16,3.9,16.8,7.8z"/>
<linearGradient id="SVGID_00000156553772129232107480000014470157880852331665_" gradientUnits="userSpaceOnUse" x1="10.369" y1="19.2204" x2="9.4834" y2="8.513" gradientTransform="matrix(1 0 0 -1 0 21.1024)">
	<stop  offset="0" style="stop-color:#FFD640"/>
	<stop  offset="1" style="stop-color:#F99F1B"/>
</linearGradient>
<path style="fill:url(#SVGID_00000156553772129232107480000014470157880852331665_);" d="M16.8,8.1c0.5,3.7-2.1,7.3-5.8,7.9
	c-0.1,0-0.2,0-0.3,0c-0.9,0.1-1.7,0.1-2.5-0.1c-0.8-0.2-1.5-0.5-2.2-0.9c-0.2-0.1-0.4-0.2-0.5-0.4c-0.8-0.6-1.4-1.2-1.9-2
	c-0.1-0.2-0.2-0.4-0.3-0.6c-0.2-0.5-0.4-1-0.6-1.5C2.3,6.9,4.8,3.4,8.6,2.7C9,2.6,9.5,2.6,10,2.6c0.2,0,0.5,0,0.7,0.1
	c1,0.1,1.9,0.4,2.7,0.9c0.2,0.1,0.4,0.2,0.5,0.3c0.7,0.5,1.2,1.1,1.7,1.6c0.5,0.7,0.9,1.3,1,2.1C16.7,7.8,16.8,7.9,16.8,8.1z"/>
<g class="st6">
	
		<linearGradient id="SVGID_00000159430056007408686070000005164645768622060472_" gradientUnits="userSpaceOnUse" x1="12.4677" y1="11.3783" x2="12.4677" y2="-12.4928" gradientTransform="matrix(1 0 0 -1 0 21.1024)">
		<stop  offset="0" style="stop-color:#FFD640"/>
		<stop  offset="1" style="stop-color:#F99F1B"/>
	</linearGradient>
	<path style="fill:url(#SVGID_00000159430056007408686070000005164645768622060472_);" d="M16.7,7.7l-5.9,8.5
		c-0.9,0.1-1.7,0.1-2.5-0.1l7.3-10.5C16,6.1,16.4,6.9,16.7,7.7z"/>
</g>
<g class="st6">
	
		<linearGradient id="SVGID_00000009548161840475620420000010953849089526949772_" gradientUnits="userSpaceOnUse" x1="6.9831" y1="11.3782" x2="6.9831" y2="-12.4928" gradientTransform="matrix(1 0 0 -1 0 21.1024)">
		<stop  offset="0" style="stop-color:#FFD640"/>
		<stop  offset="1" style="stop-color:#F99F1B"/>
	</linearGradient>
	<path style="fill:url(#SVGID_00000009548161840475620420000010953849089526949772_);" d="M10.7,2.6L3.6,12.8
		c-0.1-0.2-0.2-0.4-0.3-0.6L10,2.6C10.3,2.6,10.5,2.6,10.7,2.6z"/>
</g>
<g class="st6">
	
		<linearGradient id="SVGID_00000060735758914708847680000010675308985988466355_" gradientUnits="userSpaceOnUse" x1="9.7016" y1="11.3783" x2="9.7016" y2="-12.4928" gradientTransform="matrix(1 0 0 -1 0 21.1024)">
		<stop  offset="0" style="stop-color:#FFD640"/>
		<stop  offset="1" style="stop-color:#F99F1B"/>
	</linearGradient>
	<path style="fill:url(#SVGID_00000060735758914708847680000010675308985988466355_);" d="M13.9,3.8L6,15.1
		c-0.2-0.1-0.4-0.2-0.5-0.4l7.9-11.3C13.5,3.6,13.7,3.7,13.9,3.8z"/>
</g>
</svg>
