<?xml version="1.0" encoding="UTF-8"?>
<svg xmlns="http://www.w3.org/2000/svg" version="1.1" viewBox="0 0 214 39">
  <!-- Generator: Adobe Illustrator 28.6.0, SVG Export Plug-In . SVG Version: 1.2.0 Build 709)  -->
  <g>
    <g id="Layer_1">
      <path d="M211.4,38.2H2.6c-.6,0-1.3-.4-1.6-1.1-.3-.6-.4-1.5-.2-2.4l7.8-15.4L.8,3.9c-.2-.8-.1-1.6.2-2.4.3-.6,1-1.1,1.6-1.1h208.6c.6,0,1.2.4,1.6,1.1.3.6.4,1.5.3,2.3l-7,15.5,6.9,15.2c.1.3.2.8.2,1.1.1,1.4-.8,2.6-1.8,2.6Z" fill="#f6bf29"/>
      <path d="M213.1,34.5l-6.9-15.2,7-15.5c.2-.8.1-1.6-.3-2.3-.3-.6-1-1.1-1.6-1.1h-18.7c-13.8,12.1-56.9,32.6-190,30.7l-1.8,3.6c-.2.8-.1,1.6.2,2.4.3.6,1,1.1,1.6,1.1h208.6c1.1,0,1.9-1.1,1.9-2.5.2-.5.1-.9,0-1.2Z" fill="#f8a12e"/>
    </g>
  </g>
</svg>