<?xml version="1.0" encoding="UTF-8"?>
<svg xmlns="http://www.w3.org/2000/svg" version="1.1" xmlns:xlink="http://www.w3.org/1999/xlink" viewBox="0 0 51 51">
  <defs>
    <linearGradient id="linear-gradient" x1="26.11" y1="2683.02" x2="25.33" y2="2725.99" gradientTransform="translate(0 -2680.9)" gradientUnits="userSpaceOnUse">
      <stop offset=".7" stop-color="#fde482"/>
      <stop offset=".74" stop-color="#fce27e"/>
      <stop offset=".8" stop-color="#f9dc71"/>
      <stop offset=".86" stop-color="#f5d25b"/>
      <stop offset=".92" stop-color="#efc53b"/>
      <stop offset=".93" stop-color="#edc131"/>
    </linearGradient>
  </defs>
  <!-- Generator: Adobe Illustrator 28.6.0, SVG Export Plug-In . SVG Version: 1.2.0 Build 709)  -->
  <g>
    <g id="Layer_1">
      <path d="M2.7,18.7v13.7c0,2.2.4,4.2,1.3,6.1.9,1.8,1.9,3.6,3.4,5.1,1.5,1.4,3.2,2.6,5.2,3.3,2,.9,4.1,1.3,6.4,1.3h13.7c2.2,0,4.3-.4,6.4-1.3,1.9-.8,3.7-1.9,5.2-3.3,1.5-1.4,2.7-3.1,3.4-5.1.4-1,.8-1.9,1-2.9.2-1.1.3-2.2.3-3.2v-13.7c0-2.2-.4-4.2-1.3-6.1-.9-1.8-1.9-3.6-3.4-5.1-1.5-1.4-3.2-2.6-5.2-3.3-2-.9-4.1-1.3-6.4-1.3h-13.8c-2.2,0-4.3.4-6.4,1.3-.9.3-1.6.8-2.4,1.2-.9.6-1.9,1.4-2.8,2.1-1.4,1.4-2.4,2.9-3.3,4.6-.1.1-.1.2-.2.4-.7,2-1.1,4.1-1.1,6.2Z" fill="#d38a28"/>
      <path d="M49.6,11.7c-1-2.2-2.3-4-3.9-5.7-1.7-1.6-3.7-2.9-5.8-3.8-2.3-1-4.6-1.4-7.1-1.4h-13.9c-2.5,0-4.8.4-7.1,1.4-.1.1-.3.1-.4.2-2,.9-3.8,2.2-5.4,3.7-1.3,1.3-2.5,2.8-3.3,4.4-.3.5-.5.9-.7,1.3,0,.1-.1.2-.1.3-.2.4-.3,1-.5,1.4-.4,1.3-.6,2.6-.8,3.9v14.9c0,2.4.5,4.7,1.4,7,1,2.2,2.3,4,3.9,5.7,1.7,1.6,3.7,2.9,5.8,3.8,2.3,1,4.6,1.4,7.1,1.4h13.7c1.1,0,2.2-.1,3.2-.3.5-.1,1.2-.2,1.7-.4.8-.2,1.5-.4,2.2-.8.1,0,.2-.1.3-.1,2-.9,4-2.2,5.5-3.7,1.5-1.4,2.7-3,3.6-4.8.1-.3.2-.5.4-.9,1-2.2,1.4-4.5,1.4-7v-13.5c.2-2.3-.3-4.7-1.2-7ZM45.6,37.8c-.8,1.6-1.7,3.1-3,4.4-1.3,1.3-2.8,2.3-4.5,2.9-.2.1-.4.2-.6.2-.5.2-1.2.3-1.7.5-.4.1-1,.2-1.4.2-.5.1-1.1.1-1.6.1h-13.9c-1.9,0-3.8-.3-5.5-1.1-1.7-.6-3.2-1.7-4.5-2.9-1.3-1.3-2.3-2.7-3-4.4-.8-1.7-1.1-3.4-1.1-5.4v-13.6c0-.9.1-1.7.2-2.6.1-.4.2-.9.3-1.3.1-.2.1-.4.2-.6.1-.3.2-.6.3-1,.1-.1.1-.3.2-.4.6-1.5,1.6-2.8,2.8-4,1.3-1.3,2.8-2.3,4.5-2.9.3-.1.6-.2,1-.3,1.5-.4,3-.8,4.5-.8h13.7c1.9,0,3.8.3,5.5,1.1,1.7.6,3.2,1.7,4.5,2.9,1.3,1.3,2.3,2.7,3,4.4.8,1.7,1.1,3.4,1.1,5.4v13.7c.2,1.9-.3,3.8-1,5.5Z" fill="#d38a28"/>
      <path d="M14.3,5.7c-.3.1-.6.2-1,.3-1.7.6-3.2,1.7-4.5,2.9-1.2,1.2-2.2,2.5-2.8,4-1.5-.6-2.7-1.7-3.4-2.5.9-1.6,1.9-3.1,3.3-4.4,1.6-1.5,3.3-2.7,5.4-3.7,1.7,1.2,2.7,2.6,3,3.4Z" fill="#d38a28"/>
      <path d="M5.6,12.1h1.9c26.8,0,35.9,16.2,38.2,22.2.5,1.4.8,2.3.8,2.3,0,0,.2-.1.4-.2.3-1.3.5-2.6.5-4v-13.7c0-1.9-.4-3.9-1.2-5.7-.8-1.7-1.8-3.2-3.2-4.6-1.4-1.3-3-2.4-4.7-3.1-1.8-.8-3.8-1.2-5.8-1.2h-13.6c-2,0-4,.4-5.8,1.2-1.8.7-3.4,1.8-4.8,3.1-1.1,1.2-1.9,2.3-2.7,3.7Z" fill="#d38a28" isolation="isolate" opacity=".33"/>
      <path d="M30.7,7.3s5.3-.3,9,2.4c3.8,2.6,1.6,3.3-3.3,1.7-4.8-1.7-10.3-3.8-5.7-4.1Z" fill="#d38a28"/>
      <path d="M26.5,7.2c-1.6-.1-3.6-.1-3.8.8-.2.9,2.8.8,4,.4,1.1-.2.7-1.2-.2-1.2Z" fill="#d38a28"/>
      <path d="M5.4,14.8c-.1.4-.2.9-.3,1.3-1.2-.8-2.6-1.7-3.7-2.6.1-.4.3-1,.5-1.4.9.8,2.3,2,3.5,2.7Z" fill="#d38a28"/>
      <path d="M4,18.7v13.7c0,1.9.4,3.9,1.2,5.7.8,1.7,1.8,3.2,3.2,4.6,1.4,1.3,3,2.4,4.7,3.1,1.8.8,3.8,1.2,5.8,1.2h13.7c2,0,4-.4,5.8-1.2,1.7-.8,3.3-1.8,4.7-3.1s2.5-2.9,3.2-4.6c.2-.5.4-1.2.6-1.7.3-1.3.5-2.6.5-4v-13.7c0-1.9-.4-3.9-1.2-5.7-.8-1.7-1.8-3.2-3.2-4.6-1.4-1.3-3-2.4-4.7-3.1-1.8-.8-3.8-1.2-5.8-1.2h-13.6c-2,0-4,.4-5.8,1.2-1.8.7-3.4,1.8-4.8,3.1-1.1,1.1-2,2.4-2.8,3.7-.1.3-.3.6-.4,1-.7,1.7-1.1,3.7-1.1,5.6ZM5.6,18.7c0-2.4.6-4.6,1.8-6.6,2.3-3.7,6.6-6.3,11.5-6.3h13.7c7.3,0,13.2,5.8,13.2,12.9v13.7c0,.6,0,1.3-.1,1.9-1,6.2-6.5,11-13.1,11h-13.7c-7.3,0-13.2-5.8-13.2-12.9v-13.7h-.1Z" fill="#d38a28"/>
      <path d="M4.2,18v13.1c0,2,.4,4,1.2,5.9.8,1.8,1.8,3.4,3.2,4.8,1.4,1.4,3,2.5,4.8,3.2,1.8.8,3.9,1.2,5.9,1.2h12.8c2,0,4-.4,5.9-1.2,1.8-.8,3.4-1.8,4.8-3.2,1.4-1.4,2.5-3,3.2-4.8.4-1,.6-1.8.9-2.8.2-1,.3-2,.3-3v-13.2c0-2-.4-4-1.2-5.9-.8-1.8-1.8-3.4-3.2-4.8-1.4-1.4-3-2.5-4.8-3.2-1.8-.8-3.9-1.2-5.9-1.2h-12.7c-2,0-4,.4-5.9,1.2-.8.3-1.5.8-2.2,1.2-1,.6-1.8,1.3-2.6,2-1.3,1.2-2.3,2.7-3.1,4.3-.1.1-.1.2-.2.3-.8,2.1-1.2,4-1.2,6.1Z" fill="url(#linear-gradient)"/>
      <path d="M47.9,11.3c-.9-2-2-3.9-3.7-5.4-1.6-1.6-3.4-2.8-5.4-3.7-2.2-.9-4.3-1.3-6.7-1.3h-12.7c-2.3,0-4.5.4-6.7,1.3-.1.1-.3.1-.4.2-1.8.9-3.6,2-5,3.4-1.3,1.4-2.2,2.8-3.1,4.3-.2.4-.4.8-.5,1.2,0,.1-.1.2-.1.3-.2.4-.4.9-.5,1.4-.3,1.2-.6,2.5-.6,3.8v14.3c0,2.3.4,4.5,1.3,6.7.9,2,2,3.9,3.7,5.4,1.6,1.6,3.4,2.8,5.4,3.7,2.2.9,4.3,1.3,6.7,1.3h12.8c1,0,2-.1,3-.2.5-.1,1.1-.2,1.6-.3.6-.2,1.4-.4,2-.8.1,0,.2-.1.2-.1,1.9-.9,3.7-2,5.2-3.6,1.4-1.4,2.5-2.9,3.3-4.6.1-.2.2-.5.3-.8.9-2.2,1.3-4.3,1.3-6.7v-13.1c-.1-2.3-.5-4.6-1.4-6.7ZM44.3,36.2c-.6,1.6-1.6,3-2.8,4.2s-2.6,2.2-4.2,2.8c-.2.1-.4.2-.6.2-.5.2-1.1.3-1.6.4-.4.1-.9.2-1.3.2-.5.1-1,.1-1.5.1h-12.9c-1.7,0-3.4-.3-5.2-1.1-1.6-.6-3-1.6-4.2-2.8s-2.2-2.6-2.8-4.2c-.6-1.6-1.1-3.3-1.1-5.2v-12.8c0-.9.1-1.6.2-2.5.1-.4.2-.9.3-1.2.1-.2.1-.4.2-.5.1-.3.2-.5.3-.9.1-.1.1-.2.2-.4.6-1.4,1.5-2.7,2.7-3.8,1.2-1.2,2.6-2.2,4.2-2.8.3-.1.5-.2.9-.3,1.4-.4,2.8-.6,4.2-.6h12.8c1.7,0,3.4.3,5.2,1.1,1.6.6,3,1.6,4.2,2.8,1.2,1.2,2.2,2.6,2.8,4.2s1.1,3.3,1.1,5.2v13.1c0,1.4-.5,3.2-1.1,4.8Z" fill="#f2d847"/>
      <path d="M15.1,5.5c-.3.1-.6.2-.9.3-1.6.6-3,1.6-4.2,2.8-1,1.1-2,2.4-2.7,3.8-1.4-.6-2.5-1.6-3.2-2.4.8-1.5,1.8-2.9,3.1-4.2,1.5-1.5,3.1-2.6,5-3.4,1.7,1,2.6,2.4,2.9,3.1Z" fill="#ffefa1"/>
      <path d="M7,11.7h1.7c25,0,33.4,15.5,35.6,21.3.5,1.3.8,2.2.8,2.2,0,0,.1-.1.4-.2.3-1.2.5-2.5.5-3.8v-13.2c0-1.8-.3-3.7-1.1-5.4-.8-1.6-1.7-3.1-3-4.4-1.3-1.3-2.8-2.3-4.4-3-1.7-.8-3.6-1.1-5.4-1.1h-12.7c-1.8,0-3.7.3-5.4,1.1-1.6.8-3.1,1.7-4.4,3-1.1.9-1.9,2.1-2.6,3.5Z" fill="#fff" isolation="isolate" opacity=".33"/>
      <path d="M30.4,7s4.8-.3,8.4,2.3c3.6,2.5,1.5,3.2-3.1,1.6-4.6-1.7-9.6-3.6-5.3-3.9Z" fill="#fff"/>
      <path d="M26.4,6.9c-1.5-.1-3.3-.1-3.6.8-.2.8,2.6.6,3.7.4,1.2-.3.8-1.1-.1-1.2Z" fill="#fff"/>
      <path d="M6.7,14.3c-.1.4-.2.9-.3,1.2-1.1-.8-2.4-1.6-3.5-2.5.1-.4.3-.9.4-1.4,1,.9,2.3,2,3.4,2.7Z" fill="#ffefa1"/>
      <path d="M5.5,18v13.1c0,1.8.3,3.7,1.1,5.4.8,1.6,1.7,3.1,3,4.4,1.3,1.3,2.8,2.3,4.4,3,1.7.8,3.6,1.1,5.4,1.1h12.8c1.8,0,3.7-.3,5.4-1.1,1.6-.8,3.1-1.7,4.4-3,1.3-1.3,2.3-2.8,3-4.4.2-.5.4-1.1.5-1.6.3-1.2.5-2.5.5-3.8v-13.1c0-1.8-.3-3.7-1.1-5.4-.8-1.6-1.7-3.1-3-4.4-1.3-1.3-2.8-2.3-4.4-3-1.7-.8-3.6-1.1-5.4-1.1h-12.7c-1.8,0-3.7.3-5.4,1.1-1.6.8-3.1,1.7-4.4,3-1.1,1-1.9,2.2-2.6,3.5-.1.3-.3.5-.4.9-.8,1.7-1.1,3.5-1.1,5.4ZM7,18c0-2.3.6-4.4,1.7-6.4,2.2-3.7,6.1-6,10.7-6h12.8c6.8,0,12.4,5.5,12.4,12.4v13.1c0,.6,0,1.3-.1,1.8-.9,5.9-6,10.6-12.3,10.6h-12.8c-6.8,0-12.4-5.5-12.4-12.4v-13.1Z" fill="#d38a28"/>
      <path d="M42.2,24.6c0,9.3-7.5,16.8-16.8,16.8-1.1,0-2-.1-3-.3-.2,0-.5-.5-.9-.6-4.2-1-7.1-3.2-9.5-6.7-.1-.2-.9-.1-1-.3-1.6-2.6-2.6-5.7-2.6-8.9,0-9.3,7.5-16.8,16.8-16.8,9.4-.1,17,7.6,17,16.8Z" fill="#374a9f"/>
      <path d="M38.1,25.6c0,6.5-5.3,11.7-11.7,11.7s-11.7-5.3-11.7-11.7,5.3-11.7,11.7-11.7c6.5,0,11.7,5.3,11.7,11.7Z" fill="#4358a7"/>
      <path d="M29.6,36.3c.3,0,.6.3.6.6v1.3c0,.3-.3.6-.6.6s-.6-.3-.6-.6v-1.3c-.1-.3.2-.6.6-.6ZM31,36.6l.9.9c.2.2.6.2,1,0,.2-.2.2-.6,0-1l-.9-.9c-.2-.2-.6-.2-1,0-.2.4-.2.8,0,1ZM26.3,37.5c.2.2.6.2,1,0l.9-.9c.2-.2.2-.6,0-1-.2-.2-.6-.2-1,0l-.9.9c-.2.3-.2.8,0,1Z" fill="#6f7dbd"/>
      <path d="M22.4,34.1v7.1c-4.7-.9-8.8-3.8-11.3-7.8h10.7c.3.1.6.4.6.7ZM21.8,11.8h-10.8c-.3,0-.6.3-.6.6v10.7c0,.3.3.6.6.6h10.7c.3,0,.6-.3.6-.6v-10.6c.1-.4-.2-.7-.5-.7Z" fill="#ee4080"/>
      <path d="M14,34.7l-2.3.5c-.3.1-.8-.1-.8-.5l-2.3-10.5c-.1-.3.1-.8.5-.8l2.3-.5c.3-.1.8.1.8.5l2.4,10.4c.1.4-.2.8-.6.9Z" fill="#ee4080"/>
      <path d="M22.2,32.8l-8.6,1.9c-.3.1-.8-.1-.8-.5l-2.4-10.4c0-.3.2-.8.6-.8l8.6-1.9c.3-.1.8.1.8.5l2.4,10.4c-.1.4-.3.7-.6.8Z" fill="#f05f94"/>
      <path d="M12.5,14.6c0-.3.3-.6.6-.6h5.9c.3,0,.6.3.6.6s-.3.6-.6.6h-5.8c-.5.2-.7-.1-.7-.6ZM18.9,16.7h-5.7c-.3,0-.6.3-.6.6s.2.6.6.6h5.8c.3,0,.6-.3.6-.6s-.3-.6-.7-.6ZM15.7,19.3h-2.6c-.3,0-.6.3-.6.6s.3.6.6.6h2.6c.3,0,.6-.3.6-.6s-.2-.6-.6-.6Z" fill="#f5a0c1"/>
      <path d="M27.5,12.5v10.7c0,.3-.3.6-.6.6h-2.5c-.3,0-.6-.3-.6-.6v-10.7c0-.3.3-.6.6-.6h2.5c.3-.1.6.2.6.6Z" fill="#fbaa19"/>
      <path d="M35.7,12.5v10.7c0,.3-.3.6-.6.6h-8.6c-.3,0-.6-.3-.6-.6v-10.7c0-.3.3-.6.6-.6h8.5c.3-.1.7.2.7.6Z" fill="#fdb515"/>
      <path d="M29.3,22.5l-1.3,10.5c0,.3-.3.6-.8.5l-2.5-.3c-.3,0-.6-.3-.5-.8l1.3-10.4c0-.3.3-.6.8-.5l2.5.3c.3,0,.5.4.5.7Z" fill="#fec144"/>
      <path d="M37.5,23.5l-1.3,10.5c0,.3-.3.6-.8.5l-8.4-1c-.3,0-.6-.3-.5-.8l1.3-10.6c0-.3.3-.6.8-.5l8.4,1c.3.2.5.5.5.9Z" fill="#ffce6d"/>
      <path d="M30.5,28.5c0,.3-.3.6-.8.6l-2.5-.1c-.3,0-.6-.3-.6-.8,0-.3.3-.6.8-.6l2.6.2c.3.1.6.4.5.7ZM33.3,25.5l-5.7-.4c-.3,0-.6.2-.8.6,0,.3.2.6.6.8l5.7.4c.3,0,.6-.2.8-.6,0-.5-.2-.8-.6-.8Z" fill="#f8951d"/>
      <path d="M32.4,11.3l-.8,10.7c0,.3-.3.6-.8.6l-2.4-.2c-.3,0-.6-.3-.6-.8l.9-10.6c0-.3.3-.6.8-.6l2.4.2c.2,0,.5.4.5.7Z" fill="#059c5e"/>
      <path d="M40.6,12l-.9,10.7c0,.3-.3.6-.8.6l-8.4-.6c-.3,0-.6-.3-.6-.8l.9-10.7c0-.3.3-.6.8-.6l8.4.6c.4.1.6.4.6.8Z" fill="#21b573"/>
      <path d="M34.3,8.5v10.7c0,.3-.3.6-.6.6h-2.7c-.3,0-.6-.3-.6-.6v-10.7c0-.3.3-.6.6-.6h2.7c.2-.1.6.3.6.6Z" fill="#4fbb7c"/>
      <path d="M42.2,8.5v10.7c0,.3-.3.6-.6.6h-8.5c-.3,0-.6-.3-.6-.6v-10.7c0-.3.3-.6.6-.6h8.5c.3-.1.6.3.6.6Z" fill="#58be8a"/>
      <path d="M40.7,11.8l-4.7,4.8c-.1.1-.3.2-.4.2-.2,0-.3-.1-.4-.2l-3-3c-.2-.2-.2-.6,0-1,.2-.2.6-.2,1,0l2.6,2.6,4.3-4.3c.2-.2.6-.2,1,0-.2.3-.2.7-.4.9Z" fill="#037f4c"/>
      <path d="M16.8,31.4c.1.3-.1.5-.4.6-.3.1-.5-.1-.6-.4s.1-.5.4-.6c.3-.1.6.1.6.4ZM17.5,25.8c-.3-1.2-1.4-1.8-2.6-1.7-1.1.2-1.9,1.2-1.8,2.4v.3c0,.2.3.4.5.4s.4-.3.4-.5v-.2c0-.6.4-1.2,1.1-1.3.6-.1,1.3.3,1.4,1,.1.3,0,.6-.2,1-.2.3-.4.5-.9.5-.1,0-.2.1-.3.2-.1.1-.1.2-.1.3l.3,1.8c0,.2.2.4.4.4h.1c.2,0,.4-.3.4-.5l-.2-1.4c.4-.2.8-.4,1-.9.6-.6.7-1.2.5-1.8Z" fill="#fef4f5"/>
    </g>
  </g>
</svg>